ISO-10303-21;
HEADER;
FILE_DESCRIPTION (( 'STEP AP203' ),
    '1' );
FILE_NAME ('Çò.STEP',
    '2026-02-18T03:49:00',
    ( '' ),
    ( '' ),
    'SwSTEP 2.0',
    'SolidWorks 2024',
    '' );
FILE_SCHEMA (( 'CONFIG_CONTROL_DESIGN' ));
ENDSEC;

DATA;
#1 = CARTESIAN_POINT ( 'NONE',  ( 8.215038489670501320, 8.950634535671632364, 8.802112636104464372 ) ) ;
#2 = VECTOR ( 'NONE', #127, 1000.000000000000114 ) ;
#3 = VERTEX_POINT ( 'NONE', #462 ) ;
#4 = PERSON_AND_ORGANIZATION_ROLE ( 'creator' ) ;
#5 = CIRCLE ( 'NONE', #233, 0.9000000000000000222 ) ;
#6 = CARTESIAN_POINT ( 'NONE',  ( -6.069402353196018396, 9.972246455689980138, -9.423006248818065700 ) ) ;
#7 = DIRECTION ( 'NONE',  ( -0.3535533905932767285, -0.7071067811865388020, -0.6123724356958029080 ) ) ;
#8 = EDGE_CURVE ( 'NONE', #623, #596, #536, .T. ) ;
#9 = ORIENTED_EDGE ( 'NONE', *, *, #744, .T. ) ;
#10 = CARTESIAN_POINT ( 'NONE',  ( -6.226534325537443237, 2.221805221062748359, -13.46735858905925909 ) ) ;
#11 = VERTEX_POINT ( 'NONE', #519 ) ;
#12 = CARTESIAN_POINT ( 'NONE',  ( 3.931690641290277011, 9.418972211608995337, 10.99545719493172058 ) ) ;
#13 = ADVANCED_FACE ( 'NONE', ( #524 ), #824, .F. ) ;
#14 = CARTESIAN_POINT ( 'NONE',  ( -9.803171669682134493, 3.430181859322364968, -10.82625978707797465 ) ) ;
#15 = EDGE_LOOP ( 'NONE', ( #40, #158, #790, #647, #666 ) ) ;
#16 = B_SPLINE_CURVE_WITH_KNOTS ( 'NONE', 3,
 ( #851, #776, #135, #913, #565, #412, #708, #278, #556, #213, #487, #862, #634, #711, #287, #66, #342, #209, #6, #700, #422, #224, #351, #217, #480, #72, #415, #59, #347, #139, #497, #770, #856, #788 ),
 .UNSPECIFIED., .F., .F.,
 ( 4, 2, 2, 2, 2, 2, 2, 2, 2, 2, 2, 2, 2, 2, 2, 2, 4 ),
 ( 0.008766733537090863615, 0.009593497026040613551, 0.01042026051499036175, 0.01124702400394010995, 0.01207378749288985642, 0.01290055098183960289, 0.01372731447078935109, 0.01455407795973909929, 0.01538084144868884576, 0.01620760493763859222, 0.01703436842658834216, 0.01786113191553808863, 0.01868789540448783509, 0.01951465889343758503, 0.02034142238238733150, 0.02116818587133707796, 0.02199494936028682790 ),
 .UNSPECIFIED. ) ;
#17 = CARTESIAN_POINT ( 'NONE',  ( 9.905783311809694069, 6.499134563892210892, 9.203973600989154846 ) ) ;
#18 = ORIENTED_EDGE ( 'NONE', *, *, #300, .F. ) ;
#19 = PERSON_AND_ORGANIZATION_ROLE ( 'design_supplier' ) ;
#20 = CLOSED_SHELL ( 'NONE', ( #646, #196, #919, #759, #833, #152, #547, #575, #515, #225, #562, #80, #253, #479, #101, #27, #259, #767, #214, #344, #577, #88, #110, #426, #13 ) ) ;
#21 = VECTOR ( 'NONE', #56, 1000.000000000000114 ) ;
#22 = DIRECTION ( 'NONE',  ( 0.000000000000000000, -0.5878588831525582981, -0.8089634933040098508 ) ) ;
#23 = CIRCLE ( 'NONE', #601, 0.9000000000000000222 ) ;
#24 = ORIENTED_EDGE ( 'NONE', *, *, #437, .T. ) ;
#25 = DIRECTION ( 'NONE',  ( 1.000000000000000000, 0.000000000000000000, 0.000000000000000000 ) ) ;
#26 = DIRECTION ( 'NONE',  ( 0.3213938048432666283, -0.7660444431189745718, -0.5566703992264260270 ) ) ;
#27 = ADVANCED_FACE ( 'NONE', ( #178 ), #455, .T. ) ;
#28 = PLANE ( 'NONE',  #402 ) ;
#29 = ORIENTED_EDGE ( 'NONE', *, *, #507, .F. ) ;
#30 = CARTESIAN_POINT ( 'NONE',  ( 1.606969024216372111, -3.830222215594872637, 2.783351996132107598 ) ) ;
#31 = CARTESIAN_POINT ( 'NONE',  ( -5.882934614143511709, -9.998304317375561467, 9.509205597885737049 ) ) ;
#32 = DIRECTION ( 'NONE',  ( 0.7071067811865561215, -0.7071067811865389130, -5.051514762044462259E-15 ) ) ;
#33 = CARTESIAN_POINT ( 'NONE',  ( -5.293746310506437069, -10.58749262101265565, -9.169037572177483497 ) ) ;
#34 = AXIS2_PLACEMENT_3D ( 'NONE', #255, #396, #532 ) ;
#35 = ORIENTED_EDGE ( 'NONE', *, *, #502, .T. ) ;
#36 = EDGE_CURVE ( 'NONE', #765, #440, #739, .T. ) ;
#37 = AXIS2_PLACEMENT_3D ( 'NONE', #542, #470, #119 ) ;
#38 = LINE ( 'NONE', #754, #751 ) ;
#39 = CARTESIAN_POINT ( 'NONE',  ( 4.561130746712878548, -10.87148790737402138, -7.900110193271447478 ) ) ;
#40 = ORIENTED_EDGE ( 'NONE', *, *, #207, .F. ) ;
#41 = DIRECTION ( 'NONE',  ( -0.8660254037844397068, 0.000000000000000000, 0.4999999999999982792 ) ) ;
#42 = CARTESIAN_POINT ( 'NONE',  ( 8.652567441639956058, 2.278794255222603482, 12.03988922368877645 ) ) ;
#43 = EDGE_CURVE ( 'NONE', #68, #897, #537, .T. ) ;
#44 = VERTEX_POINT ( 'NONE', #810 ) ;
#45 = CARTESIAN_POINT ( 'NONE',  ( -0.8999999999999962474, -14.97297565616133674, -1.102182119232613227E-16 ) ) ;
#46 = CARTESIAN_POINT ( 'NONE',  ( 10.58749262101291144, -10.58749262101265565, -7.563620755883141429E-14 ) ) ;
#47 = VERTEX_POINT ( 'NONE', #45 ) ;
#48 = LINE ( 'NONE', #474, #388 ) ;
#49 = VECTOR ( 'NONE', #393, 1000.000000000000000 ) ;
#50 = LOCAL_TIME ( 11, 49, 0.000000000000000000, #306 ) ;
#51 = CARTESIAN_POINT ( 'NONE',  ( -2.474873734152939875, -4.949747468305777609, 4.286607049870625907 ) ) ;
#52 = CARTESIAN_POINT ( 'NONE',  ( 10.16207430005308865, 5.007882788234488736, 9.835041690621130428 ) ) ;
#53 = FACE_OUTER_BOUND ( 'NONE', #15, .T. ) ;
#54 = PRODUCT_DEFINITION_SHAPE ( 'NONE', 'NONE',  #250 ) ;
#55 = CARTESIAN_POINT ( 'NONE',  ( -5.293746310506436181, -9.998304317375559691, -9.849373623593974614 ) ) ;
#56 = DIRECTION ( 'NONE',  ( -0.4999999999999982236, -0.000000000000000000, -0.8660254037844395958 ) ) ;
#57 = DIRECTION ( 'NONE',  ( 0.000000000000000000, 0.000000000000000000, -1.000000000000000000 ) ) ;
#58 = DIRECTION ( 'NONE',  ( -0.7660444431189745718, 0.6427876096865433597, 0.000000000000000000 ) ) ;
#59 = CARTESIAN_POINT ( 'NONE',  ( -9.158384350334408452, 7.936284902953139486, -8.843972052907238535 ) ) ;
#60 = AXIS2_PLACEMENT_3D ( 'NONE', #458, #323, #589 ) ;
#61 = AXIS2_PLACEMENT_3D ( 'NONE', #715, #291, #147 ) ;
#62 = CARTESIAN_POINT ( 'NONE',  ( 4.820907072649116998, -11.49066664678462324, 8.350055988396325901 ) ) ;
#63 = AXIS2_PLACEMENT_3D ( 'NONE', #46, #102, #755 ) ;
#64 = LINE ( 'NONE', #489, #235 ) ;
#65 = EDGE_LOOP ( 'NONE', ( #724, #168, #457, #785, #600, #29, #94, #630, #603 ) ) ;
#66 = CARTESIAN_POINT ( 'NONE',  ( -5.110662225270806935, 9.969612575798199927, -9.978166573543544970 ) ) ;
#67 = CARTESIAN_POINT ( 'NONE',  ( 1.606969024216332587, -3.830222215594875745, -2.783351996132129802 ) ) ;
#68 = VERTEX_POINT ( 'NONE', #594 ) ;
#69 = CARTESIAN_POINT ( 'NONE',  ( 3.112371603845176526, 5.999999999999996447, 13.39078574989452264 ) ) ;
#70 = CARTESIAN_POINT ( 'NONE',  ( 2.962363401864676504, 6.999616864725839882, 12.94375758147359079 ) ) ;
#71 = EDGE_LOOP ( 'NONE', ( #895, #677 ) ) ;
#72 = CARTESIAN_POINT ( 'NONE',  ( -8.623016318749408882, 8.572797855350302143, -8.787908797643844139 ) ) ;
#73 = CARTESIAN_POINT ( 'NONE',  ( -2.793071785686849662, -4.313351365237934942, -4.837742241996776826 ) ) ;
#74 = ORIENTED_EDGE ( 'NONE', *, *, #894, .T. ) ;
#75 = AXIS2_PLACEMENT_3D ( 'NONE', #73, #7, #579 ) ;
#76 = EDGE_CURVE ( 'NONE', #876, #160, #885, .T. ) ;
#77 = DIRECTION ( 'NONE',  ( 1.224646799147353207E-16, 0.000000000000000000, -1.000000000000000000 ) ) ;
#78 = EDGE_LOOP ( 'NONE', ( #244, #166, #638, #254, #81 ) ) ;
#79 = CARTESIAN_POINT ( 'NONE',  ( 10.58749262101291144, -10.58749262101265565, -7.563620755883141429E-14 ) ) ;
#80 = ADVANCED_FACE ( 'NONE', ( #748 ), #604, .T. ) ;
#81 = ORIENTED_EDGE ( 'NONE', *, *, #8, .T. ) ;
#82 = CARTESIAN_POINT ( 'NONE',  ( -5.811591929703281423, -14.70460469521734126, 0.000000000000000000 ) ) ;
#83 = DIRECTION ( 'NONE',  ( -0.3535533905932766174, -0.7071067811865389130, 0.6123724356958030191 ) ) ;
#84 = ORIENTED_EDGE ( 'NONE', *, *, #406, .F. ) ;
#85 = PERSON_AND_ORGANIZATION_ROLE ( 'classification_officer' ) ;
#86 = CARTESIAN_POINT ( 'NONE',  ( -5.750314425733669133, 2.438119568404602866, -13.64057742506188120 ) ) ;
#87 = ORIENTED_EDGE ( 'NONE', *, *, #744, .F. ) ;
#88 = ADVANCED_FACE ( 'NONE', ( #251 ), #528, .T. ) ;
#89 = CYLINDRICAL_SURFACE ( 'NONE', #555, 0.8999999999998553601 ) ;
#90 = SHAPE_DEFINITION_REPRESENTATION ( #54, #295 ) ;
#91 = VECTOR ( 'NONE', #617, 1000.000000000000114 ) ;
#92 = CARTESIAN_POINT ( 'NONE',  ( -3.168903311345087292, 5.752147159735624626, -13.48870153952299944 ) ) ;
#93 = AXIS2_PLACEMENT_3D ( 'NONE', #476, #216, #714 ) ;
#94 = ORIENTED_EDGE ( 'NONE', *, *, #671, .T. ) ;
#95 = DIRECTION ( 'NONE',  ( 0.3830222215594847879, -0.6427876096865349220, -0.6634139481689452778 ) ) ;
#96 = DIRECTION ( 'NONE',  ( 0.3830222215594938917, -0.6427876096865349220, 0.6634139481689399487 ) ) ;
#97 = CARTESIAN_POINT ( 'NONE',  ( -4.477473375849624126, 3.426944360433317627, -13.90261808511338693 ) ) ;
#98 = ORIENTED_EDGE ( 'NONE', *, *, #417, .F. ) ;
#99 = DIRECTION ( 'NONE',  ( 0.7660444431189743497, -0.6427876096865436928, 0.000000000000000000 ) ) ;
#100 = DIRECTION ( 'NONE',  ( -0.6546536707079734230, -0.6546536707079868567, -0.3779644730092169835 ) ) ;
#101 = ADVANCED_FACE ( 'NONE', ( #682 ), #447, .F. ) ;
#102 = DIRECTION ( 'NONE',  ( 0.7071067811865561215, -0.7071067811865389130, -5.051514762044462259E-15 ) ) ;
#103 = ORIENTED_EDGE ( 'NONE', *, *, #109, .F. ) ;
#104 = CARTESIAN_POINT ( 'NONE',  ( 0.000000000000000000, -14.97297565616133674, 0.9000000000000000222 ) ) ;
#105 = CARTESIAN_POINT ( 'NONE',  ( 7.677303370939616123, 2.000455970154047414, 12.73315191725763817 ) ) ;
#106 = VECTOR ( 'NONE', #282, 1000.000000000000000 ) ;
#107 = CIRCLE ( 'NONE', #659, 0.8999999999999128697 ) ;
#108 = EDGE_LOOP ( 'NONE', ( #720, #691, #893, #550 ) ) ;
#109 = EDGE_CURVE ( 'NONE', #806, #587, #675, .T. ) ;
#110 = ADVANCED_FACE ( 'NONE', ( #379 ), #883, .F. ) ;
#111 = CARTESIAN_POINT ( 'NONE',  ( -3.213938048432718464, -3.830222215594876634, 0.000000000000000000 ) ) ;
#112 = B_SPLINE_CURVE_WITH_KNOTS ( 'NONE', 3,
 ( #363, #580, #869, #591, #157, #505, #230, #812, #14, #443, #649, #313, #878, #662, #242, #520, #428, #723, #511, #799, #10, #86, #451, #174, #740, #97, #162, #239, #656, #595, #299, #718, #92, #665 ),
 .UNSPECIFIED., .F., .F.,
 ( 4, 2, 2, 2, 2, 2, 2, 2, 2, 2, 2, 2, 2, 2, 2, 2, 4 ),
 ( 0.02199494936028682790, 0.02281204030182522324, 0.02362913124336361512, 0.02444622218490201046, 0.02526331312644040233, 0.02608040406797879768, 0.02689749500951718955, 0.02771458595105558143, 0.02853167689259397677, 0.02934876783413236864, 0.03016585877567076052, 0.03098294971720915586, 0.03180004065874754426, 0.03261713160028593961, 0.03343422254182433495, 0.03425131348336272336, 0.03506840442490111870 ),
 .UNSPECIFIED. ) ;
#113 = DIRECTION ( 'NONE',  ( 0.000000000000000000, -0.5878588831525614067, 0.8089634933040075193 ) ) ;
#114 = ORIENTED_EDGE ( 'NONE', *, *, #300, .T. ) ;
#115 = DIRECTION ( 'NONE',  ( 0.7660444431189745718, -0.6427876096865435818, 0.000000000000000000 ) ) ;
#116 = CARTESIAN_POINT ( 'NONE',  ( 6.229717725420686136, 2.220755941803408184, 13.46601081273653122 ) ) ;
#117 = APPLICATION_CONTEXT ( 'configuration controlled 3d designs of mechanical parts and assemblies' ) ;
#118 = ORIENTED_EDGE ( 'NONE', *, *, #606, .F. ) ;
#119 = DIRECTION ( 'NONE',  ( 0.7660444431189743497, -0.6427876096865436928, 0.000000000000000000 ) ) ;
#120 = CC_DESIGN_DATE_AND_TIME_ASSIGNMENT ( #628, #222, ( #250 ) ) ;
#121 = CARTESIAN_POINT ( 'NONE',  ( 0.000000000000000000, -14.97297565616133674, 0.000000000000000000 ) ) ;
#122 = CARTESIAN_POINT ( 'NONE',  ( 4.873545105647969500, 3.044945015640233343, 13.85826563592238436 ) ) ;
#123 = VERTEX_POINT ( 'NONE', #384 ) ;
#124 = FACE_OUTER_BOUND ( 'NONE', #545, .T. ) ;
#125 = AXIS2_PLACEMENT_3D ( 'NONE', #501, #784, #303 ) ;
#126 = CIRCLE ( 'NONE', #800, 15.00000000000000000 ) ;
#127 = DIRECTION ( 'NONE',  ( 0.3535533905932767285, 0.7071067811865388020, 0.6123724356958026860 ) ) ;
#128 = APPLICATION_PROTOCOL_DEFINITION ( 'international standard', 'config_control_design', 1994, #117 ) ;
#129 = VERTEX_POINT ( 'NONE', #104 ) ;
#130 = CARTESIAN_POINT ( 'NONE',  ( 6.421652895690868945, -7.749161009365014507, 11.12262908390826688 ) ) ;
#131 = DIRECTION ( 'NONE',  ( -0.000000000000000000, 1.000000000000000000, -0.000000000000000000 ) ) ;
#132 = DIRECTION ( 'NONE',  ( -0.4999999999999982236, -0.000000000000000000, -0.8660254037844395958 ) ) ;
#133 = EDGE_CURVE ( 'NONE', #333, #664, #38, .T. ) ;
#134 = EDGE_LOOP ( 'NONE', ( #787, #466, #564, #829 ) ) ;
#135 = CARTESIAN_POINT ( 'NONE',  ( -3.017338225592575807, 6.504259654240209798, -13.17827280263760592 ) ) ;
#136 = DIRECTION ( 'NONE',  ( -0.7660444431189745718, 0.6427876096865433597, 0.000000000000000000 ) ) ;
#137 = EDGE_CURVE ( 'NONE', #750, #904, #797, .T. ) ;
#138 = CYLINDRICAL_SURFACE ( 'NONE', #660, 0.8999999999998553601 ) ;
#139 = CARTESIAN_POINT ( 'NONE',  ( -9.588724201117541313, 7.239205628869762599, -8.984848270045414864 ) ) ;
#140 = VECTOR ( 'NONE', #381, 999.9999999999998863 ) ;
#141 = DIRECTION ( 'NONE',  ( -0.000000000000000000, 1.000000000000000000, -0.000000000000000000 ) ) ;
#142 = CARTESIAN_POINT ( 'NONE',  ( 3.435340113613855717, 5.010258238489137206, 13.71751105963789819 ) ) ;
#143 = DIRECTION ( 'NONE',  ( 0.000000000000000000, 0.000000000000000000, 1.000000000000000000 ) ) ;
#144 = DIRECTION ( 'NONE',  ( -0.3213938048432666283, 0.7660444431189745718, 0.5566703992264260270 ) ) ;
#145 = ORIENTED_EDGE ( 'NONE', *, *, #149, .T. ) ;
#146 = CARTESIAN_POINT ( 'NONE',  ( 3.112371603845176526, 5.999999999999996447, 13.39078574989452264 ) ) ;
#147 = DIRECTION ( 'NONE',  ( 0.000000000000000000, -0.6546536707079867456, 0.7559289460184460685 ) ) ;
#148 = CARTESIAN_POINT ( 'NONE',  ( 9.983438082481960407, 6.250505544647875666, 9.291821993076812447 ) ) ;
#149 = EDGE_CURVE ( 'NONE', #129, #444, #481, .T. ) ;
#150 = ORIENTED_EDGE ( 'NONE', *, *, #8, .F. ) ;
#151 = PLANE ( 'NONE',  #477 ) ;
#152 = ADVANCED_FACE ( 'NONE', ( #902 ), #374, .F. ) ;
#153 = EDGE_LOOP ( 'NONE', ( #269, #193 ) ) ;
#154 = DIRECTION ( 'NONE',  ( 0.000000000000000000, 0.000000000000000000, 1.000000000000000000 ) ) ;
#155 = CIRCLE ( 'NONE', #629, 0.9000000000000000222 ) ;
#156 = CIRCLE ( 'NONE', #539, 0.8999999999998560263 ) ;
#157 = CARTESIAN_POINT ( 'NONE',  ( -10.15507827335498092, 4.769015758184420584, -9.960256269465004308 ) ) ;
#158 = ORIENTED_EDGE ( 'NONE', *, *, #36, .T. ) ;
#159 = DIRECTION ( 'NONE',  ( -0.000000000000000000, 1.000000000000000000, -0.000000000000000000 ) ) ;
#160 = VERTEX_POINT ( 'NONE', #200 ) ;
#161 = APPROVAL_STATUS ( 'not_yet_approved' ) ;
#162 = CARTESIAN_POINT ( 'NONE',  ( -4.296288025645878861, 3.630896416049615549, -13.90806481872074585 ) ) ;
#163 = CC_DESIGN_DATE_AND_TIME_ASSIGNMENT ( #171, #504, ( #753 ) ) ;
#164 = ORIENTED_EDGE ( 'NONE', *, *, #703, .F. ) ;
#165 = DIRECTION ( 'NONE',  ( -0.7071067811865561215, 0.7071067811865389130, 5.051514762044462259E-15 ) ) ;
#166 = ORIENTED_EDGE ( 'NONE', *, *, #43, .T. ) ;
#167 = CARTESIAN_POINT ( 'NONE',  ( 1.102182119232617788E-16, -14.97297565616133674, -0.9000000000000000222 ) ) ;
#168 = ORIENTED_EDGE ( 'NONE', *, *, #854, .T. ) ;
#169 = DIRECTION ( 'NONE',  ( -0.7071067811865388020, -0.7071067811865562325, 3.552713678800503296E-15 ) ) ;
#170 = DIRECTION ( 'NONE',  ( 0.3213938048432666283, -0.7660444431189745718, -0.5566703992264260270 ) ) ;
#171 = DATE_AND_TIME ( #811, #844 ) ;
#172 = AXIS2_PLACEMENT_3D ( 'NONE', #51, #763, #271 ) ;
#173 = CIRCLE ( 'NONE', #613, 0.8999999999999129807 ) ;
#174 = CARTESIAN_POINT ( 'NONE',  ( -5.081464483950330902, 2.873704254607516884, -13.82009948474980732 ) ) ;
#175 = AXIS2_PLACEMENT_3D ( 'NONE', #39, #615, #113 ) ;
#176 = ORIENTED_EDGE ( 'NONE', *, *, #266, .T. ) ;
#177 = CARTESIAN_POINT ( 'NONE',  ( 0.5891883036370766380, -0.5891883036370934024, -0.3401680257082488334 ) ) ;
#178 = FACE_OUTER_BOUND ( 'NONE', #713, .T. ) ;
#179 = CARTESIAN_POINT ( 'NONE',  ( 7.200090282955855514, 1.999554721718413086, 13.00909104119368820 ) ) ;
#180 = ORIENTED_EDGE ( 'NONE', *, *, #606, .T. ) ;
#181 = CARTESIAN_POINT ( 'NONE',  ( 6.736018180446570192, -8.276728598351903443, 11.66712572924099511 ) ) ;
#182 = DIRECTION ( 'NONE',  ( -0.3535533905932767840, -0.7071067811865389130, -0.6123724356958027970 ) ) ;
#183 = ORIENTED_EDGE ( 'NONE', *, *, #685, .F. ) ;
#184 = EDGE_CURVE ( 'NONE', #623, #3, #612, .T. ) ;
#185 = DIRECTION ( 'NONE',  ( -0.7071067811865561215, 0.7071067811865389130, 5.051514762044462259E-15 ) ) ;
#186 = DIRECTION ( 'NONE',  ( 0.3213938048432742889, -0.7660444431189745718, 0.5566703992264214751 ) ) ;
#187 = AXIS2_PLACEMENT_3D ( 'NONE', #837, #611, #169 ) ;
#188 = EDGE_LOOP ( 'NONE', ( #103, #584, #610, #846 ) ) ;
#189 = AXIS2_PLACEMENT_3D ( 'NONE', #903, #465, #830 ) ;
#190 = VERTEX_POINT ( 'NONE', #852 ) ;
#191 = UNCERTAINTY_MEASURE_WITH_UNIT (LENGTH_MEASURE( 1.000000000000000082E-05 ), #840, 'distance_accuracy_value', 'NONE');
#192 = DIRECTION ( 'NONE',  ( 0.000000000000000000, -0.5878588831525582981, -0.8089634933040098508 ) ) ;
#193 = ORIENTED_EDGE ( 'NONE', *, *, #353, .F. ) ;
#194 = DIRECTION ( 'NONE',  ( -0.7660444431189817882, -0.6427876096865348110, 2.126576849575775921E-17 ) ) ;
#195 = CYLINDRICAL_SURFACE ( 'NONE', #734, 0.9000000000000000222 ) ;
#196 = ADVANCED_FACE ( 'NONE', ( #419 ), #215, .F. ) ;
#197 = CARTESIAN_POINT ( 'NONE',  ( 7.908164155815430085, 2.029476747868774300, 12.58635372941450292 ) ) ;
#198 = EDGE_LOOP ( 'NONE', ( #460, #223 ) ) ;
#199 = CARTESIAN_POINT ( 'NONE',  ( 0.000000000000000000, -7.000000000000000000, 0.000000000000000000 ) ) ;
#200 = CARTESIAN_POINT ( 'NONE',  ( -2.474873734152939875, -5.538935771942870012, -3.606270998454131682 ) ) ;
#201 = EDGE_LOOP ( 'NONE', ( #322, #795 ) ) ;
#202 = CARTESIAN_POINT ( 'NONE',  ( -1.885685430515862793, -5.538935771942871789, 3.946439024162377240 ) ) ;
#203 = AXIS2_PLACEMENT_3D ( 'NONE', #449, #32, #312 ) ;
#204 = AXIS2_PLACEMENT_3D ( 'NONE', #809, #738, #453 ) ;
#205 = AXIS2_PLACEMENT_3D ( 'NONE', #745, #324, #670 ) ;
#206 = LINE ( 'NONE', #693, #2 ) ;
#207 = EDGE_CURVE ( 'NONE', #765, #47, #657, .T. ) ;
#208 = VERTEX_POINT ( 'NONE', #55 ) ;
#209 = CARTESIAN_POINT ( 'NONE',  ( -5.823659860382385922, 10.00067894159463755, -9.547232174828044649 ) ) ;
#210 = EDGE_CURVE ( 'NONE', #11, #221, #279, .T. ) ;
#211 = FACE_BOUND ( 'NONE', #198, .T. ) ;
#212 = PERSON_AND_ORGANIZATION ( #454, #450 ) ;
#213 = CARTESIAN_POINT ( 'NONE',  ( -3.509523897003472115, 8.941689948971513147, -11.52411363030902081 ) ) ;
#214 = ADVANCED_FACE ( 'NONE', ( #849 ), #771, .F. ) ;
#215 = CYLINDRICAL_SURFACE ( 'NONE', #261, 0.8999999999998552491 ) ;
#216 = DIRECTION ( 'NONE',  ( 0.000000000000000000, 0.000000000000000000, 1.000000000000000000 ) ) ;
#217 = CARTESIAN_POINT ( 'NONE',  ( -8.001310320678674870, 9.120323208059605946, -8.824769661613672156 ) ) ;
#218 = CIRCLE ( 'NONE', #599, 0.8999999999998552491 ) ;
#219 = CARTESIAN_POINT ( 'NONE',  ( 0.3672294351372493160, -5.910752279499199346, -0.6360600396925495392 ) ) ;
#220 = CONICAL_SURFACE ( 'NONE', #205, 5.000000000000001776, 0.1745329251994333364 ) ;
#221 = VERTEX_POINT ( 'NONE', #632 ) ;
#222 = DATE_TIME_ROLE ( 'creation_date' ) ;
#223 = ORIENTED_EDGE ( 'NONE', *, *, #371, .T. ) ;
#224 = CARTESIAN_POINT ( 'NONE',  ( -7.304628864962654511, 9.559608176754554876, -8.962855567484677266 ) ) ;
#225 = ADVANCED_FACE ( 'NONE', ( #777, #329, #211, #910 ), #697, .T. ) ;
#226 = CARTESIAN_POINT ( 'NONE',  ( 9.589415672330174445, 7.237908573484005181, 8.985165031924777779 ) ) ;
#227 = DIRECTION ( 'NONE',  ( 0.3535533905932767840, 0.7071067811865389130, 0.6123724356958027970 ) ) ;
#228 = CARTESIAN_POINT ( 'NONE',  ( 4.473303930966756603, 9.771464351696909745, 10.46830184304011091 ) ) ;
#229 = ORIENTED_EDGE ( 'NONE', *, *, #685, .T. ) ;
#230 = CARTESIAN_POINT ( 'NONE',  ( -10.04411592337336678, 4.065590873138924088, -10.37595949549905683 ) ) ;
#231 = DIRECTION ( 'NONE',  ( -0.3213938048432742889, 0.7660444431189744607, -0.5566703992264214751 ) ) ;
#232 = AXIS2_PLACEMENT_3D ( 'NONE', #915, #626, #543 ) ;
#233 = AXIS2_PLACEMENT_3D ( 'NONE', #802, #159, #238 ) ;
#234 = EDGE_CURVE ( 'NONE', #814, #190, #598, .T. ) ;
#235 = VECTOR ( 'NONE', #132, 1000.000000000000114 ) ;
#236 = DIRECTION ( 'NONE',  ( -0.6546536707079733119, -0.6546536707079868567, -0.3779644730092170946 ) ) ;
#237 = ORIENTED_EDGE ( 'NONE', *, *, #816, .T. ) ;
#238 = DIRECTION ( 'NONE',  ( 0.000000000000000000, 0.000000000000000000, 1.000000000000000000 ) ) ;
#239 = CARTESIAN_POINT ( 'NONE',  ( -3.962053739903541150, 4.067797512485369360, -13.88635733893744550 ) ) ;
#240 = DIRECTION ( 'NONE',  ( 0.000000000000000000, 0.000000000000000000, -1.000000000000000000 ) ) ;
#241 = DIRECTION ( 'NONE',  ( -0.3830222215594810686, -0.6427876096865434707, 0.6634139481689389495 ) ) ;
#242 = CARTESIAN_POINT ( 'NONE',  ( -8.340421071955285370, 2.138891546309268143, -12.28568122972868082 ) ) ;
#243 = DIRECTION ( 'NONE',  ( 0.3535533905932767840, 0.7071067811865389130, 0.6123724356958027970 ) ) ;
#244 = ORIENTED_EDGE ( 'NONE', *, *, #507, .T. ) ;
#245 = CIRCLE ( 'NONE', #914, 4.857478350479742524 ) ;
#246 = AXIS2_PLACEMENT_3D ( 'NONE', #881, #499, #308 ) ;
#247 = CARTESIAN_POINT ( 'NONE',  ( 8.342953807468893146, 2.147594852157217016, 12.28013826686722254 ) ) ;
#248 = CC_DESIGN_APPROVAL ( #445, ( #753 ) ) ;
#249 = ORIENTED_EDGE ( 'NONE', *, *, #518, .T. ) ;
#250 = PRODUCT_DEFINITION ( 'æœ', '', #418, #793 ) ;
#251 = FACE_OUTER_BOUND ( 'NONE', #71, .T. ) ;
#252 = CARTESIAN_POINT ( 'NONE',  ( 1.606969024216373443, -3.830222215594875745, 2.783351996132108930 ) ) ;
#253 = ADVANCED_FACE ( 'NONE', ( #906 ), #195, .F. ) ;
#254 = ORIENTED_EDGE ( 'NONE', *, *, #184, .F. ) ;
#255 = CARTESIAN_POINT ( 'NONE',  ( -2.793071785686847441, -4.313351365237934942, 4.837742241996779491 ) ) ;
#256 = CARTESIAN_POINT ( 'NONE',  ( -12.84330579138163309, -7.749161009365016284, -1.572851332788618040E-15 ) ) ;
#257 = EDGE_LOOP ( 'NONE', ( #164, #672, #655, #792 ) ) ;
#258 = CARTESIAN_POINT ( 'NONE',  ( 1.606969024216333475, -3.830222215594876634, -2.783351996132130690 ) ) ;
#259 = ADVANCED_FACE ( 'NONE', ( #339 ), #858, .F. ) ;
#260 = CARTESIAN_POINT ( 'NONE',  ( 5.757456914577131712, 2.434487079466508330, 13.63816518586395610 ) ) ;
#261 = AXIS2_PLACEMENT_3D ( 'NONE', #709, #405, #558 ) ;
#262 = AXIS2_PLACEMENT_3D ( 'NONE', #636, #925, #570 ) ;
#263 = ORIENTED_EDGE ( 'NONE', *, *, #640, .F. ) ;
#264 = SPHERICAL_SURFACE ( 'NONE', #448, 15.00000000000000000 ) ;
#265 = LOCAL_TIME ( 11, 49, 0.000000000000000000, #786 ) ;
#266 = EDGE_CURVE ( 'NONE', #526, #486, #331, .T. ) ;
#267 = CARTESIAN_POINT ( 'NONE',  ( 4.820907072648999758, -11.49066664678462324, -8.350055988396391626 ) ) ;
#268 = CARTESIAN_POINT ( 'NONE',  ( 10.09644443480439335, 4.297613864009250051, 10.23066360987878376 ) ) ;
#269 = ORIENTED_EDGE ( 'NONE', *, *, #873, .F. ) ;
#270 = DIRECTION ( 'NONE',  ( -1.000000000000000000, 0.000000000000000000, -1.224646799147352961E-16 ) ) ;
#271 = DIRECTION ( 'NONE',  ( 0.6546536707079683159, -0.6546536707079867456, -0.3779644730092260874 ) ) ;
#272 = CARTESIAN_POINT ( 'NONE',  ( 3.245609487835916962, 5.501262676800744877, 13.57484758651636980 ) ) ;
#273 = CARTESIAN_POINT ( 'NONE',  ( 9.184850993605147944E-16, 15.00000000000000000, 0.000000000000000000 ) ) ;
#274 = EDGE_CURVE ( 'NONE', #346, #727, #548, .T. ) ;
#275 = CARTESIAN_POINT ( 'NONE',  ( -9.122261493425906309, -10.87148790737402315, 0.000000000000000000 ) ) ;
#276 = PERSON_AND_ORGANIZATION ( #454, #450 ) ;
#277 = AXIS2_PLACEMENT_3D ( 'NONE', #818, #743, #100 ) ;
#278 = CARTESIAN_POINT ( 'NONE',  ( -3.210897615323808907, 8.365610625917776488, -12.03258275882332029 ) ) ;
#279 = CIRCLE ( 'NONE', #232, 15.00000000000000000 ) ;
#280 = AXIS2_PLACEMENT_3D ( 'NONE', #817, #842, #99 ) ;
#281 =( GEOMETRIC_REPRESENTATION_CONTEXT ( 3 ) GLOBAL_UNCERTAINTY_ASSIGNED_CONTEXT ( ( #191 ) ) GLOBAL_UNIT_ASSIGNED_CONTEXT ( ( #840, #485, #704 ) ) REPRESENTATION_CONTEXT ( 'NONE', 'WORKASPACE' ) );
#282 = DIRECTION ( 'NONE',  ( -0.7071067811865561215, 0.7071067811865389130, 5.051514762044462259E-15 ) ) ;
#283 = ORIENTED_EDGE ( 'NONE', *, *, #317, .T. ) ;
#284 = EDGE_CURVE ( 'NONE', #208, #876, #206, .T. ) ;
#285 = CYLINDRICAL_SURFACE ( 'NONE', #508, 3.999999999999996447 ) ;
#286 = DIRECTION ( 'NONE',  ( 0.000000000000000000, 0.000000000000000000, 1.000000000000000000 ) ) ;
#287 = CARTESIAN_POINT ( 'NONE',  ( -4.677276037431907341, 9.855894268322392904, -10.29855759332443199 ) ) ;
#288 = DIRECTION ( 'NONE',  ( 0.000000000000000000, -0.5878588831525614067, 0.8089634933040075193 ) ) ;
#289 = PERSON_AND_ORGANIZATION ( #454, #450 ) ;
#290 = PRODUCT_RELATED_PRODUCT_CATEGORY ( 'detail', '', ( #841 ) ) ;
#291 = DIRECTION ( 'NONE',  ( -0.3535533905932767840, -0.7071067811865389130, -0.6123724356958027970 ) ) ;
#292 = VECTOR ( 'NONE', #843, 999.9999999999998863 ) ;
#293 = AXIS2_PLACEMENT_3D ( 'NONE', #733, #26, #652 ) ;
#294 = CARTESIAN_POINT ( 'NONE',  ( 8.624477738714716679, 8.571467964918097593, 8.787845213554483337 ) ) ;
#295 = ADVANCED_BREP_SHAPE_REPRESENTATION ( '\X2\7403\X0\', ( #864, #93 ), #281 ) ;
#296 = APPLICATION_CONTEXT ( 'configuration controlled 3d designs of mechanical parts and assemblies' ) ;
#297 = DIRECTION ( 'NONE',  ( 0.000000000000000000, 0.000000000000000000, 1.000000000000000000 ) ) ;
#298 = CARTESIAN_POINT ( 'NONE',  ( 3.638410017331984214, 9.115642688246882841, 11.34646811450316939 ) ) ;
#299 = CARTESIAN_POINT ( 'NONE',  ( -3.435181749907858073, 5.010419910811263478, -13.71752680243143452 ) ) ;
#300 = EDGE_CURVE ( 'NONE', #444, #440, #813, .T. ) ;
#301 = CARTESIAN_POINT ( 'NONE',  ( 10.04057483412068841, 5.999999999999999112, 9.390785749894536849 ) ) ;
#302 = DIRECTION ( 'NONE',  ( -0.7071067811865561215, 0.7071067811865389130, 5.051514762044462259E-15 ) ) ;
#303 = DIRECTION ( 'NONE',  ( 0.000000000000000000, 0.5878588831525581870, 0.8089634933040099618 ) ) ;
#304 = AXIS2_PLACEMENT_3D ( 'NONE', #275, #484, #136 ) ;
#305 = CONICAL_SURFACE ( 'NONE', #37, 5.000000000000001776, 0.1745329251994333364 ) ;
#306 = COORDINATED_UNIVERSAL_TIME_OFFSET ( 8, 0, .AHEAD. ) ;
#307 = LOCAL_TIME ( 11, 49, 0.000000000000000000, #567 ) ;
#308 = DIRECTION ( 'NONE',  ( 0.7660444431189744607, -0.6427876096865434707, 0.000000000000000000 ) ) ;
#309 = CARTESIAN_POINT ( 'NONE',  ( 0.000000000000000000, 0.000000000000000000, 0.000000000000000000 ) ) ;
#310 = DIRECTION ( 'NONE',  ( -1.000000000000000000, 0.000000000000000000, -1.224646799147352961E-16 ) ) ;
#311 = DIRECTION ( 'NONE',  ( 0.000000000000000000, 1.000000000000000000, 0.000000000000000000 ) ) ;
#312 = DIRECTION ( 'NONE',  ( -0.7071067811865388020, -0.7071067811865562325, 0.000000000000000000 ) ) ;
#313 = CARTESIAN_POINT ( 'NONE',  ( -9.111973420150267344, 2.568023109535760184, -11.63841886939407999 ) ) ;
#314 = EDGE_CURVE ( 'NONE', #664, #587, #641, .T. ) ;
#315 = ORIENTED_EDGE ( 'NONE', *, *, #43, .F. ) ;
#316 = FACE_OUTER_BOUND ( 'NONE', #469, .T. ) ;
#317 = EDGE_CURVE ( 'NONE', #727, #473, #245, .T. ) ;
#318 = ORIENTED_EDGE ( 'NONE', *, *, #757, .T. ) ;
#319 = CIRCLE ( 'NONE', #705, 15.00000000000000000 ) ;
#320 = DIRECTION ( 'NONE',  ( 0.000000000000000000, -0.6546536707079867456, 0.7559289460184460685 ) ) ;
#321 = LOCAL_TIME ( 11, 49, 0.000000000000000000, #414 ) ;
#322 = ORIENTED_EDGE ( 'NONE', *, *, #726, .T. ) ;
#323 = DIRECTION ( 'NONE',  ( 0.3535533905932767840, 0.7071067811865389130, 0.6123724356958027970 ) ) ;
#324 = DIRECTION ( 'NONE',  ( 0.3213938048432743444, -0.7660444431189745718, 0.5566703992264215861 ) ) ;
#325 = ORIENTED_EDGE ( 'NONE', *, *, #668, .T. ) ;
#326 = ORIENTED_EDGE ( 'NONE', *, *, #911, .F. ) ;
#327 = CARTESIAN_POINT ( 'NONE',  ( -3.112371603845171641, 6.000000000000000000, -13.39078574989452264 ) ) ;
#328 = ORIENTED_EDGE ( 'NONE', *, *, #625, .F. ) ;
#329 = FACE_BOUND ( 'NONE', #608, .T. ) ;
#330 = LINE ( 'NONE', #456, #901 ) ;
#331 = CIRCLE ( 'NONE', #172, 0.8999999999999130917 ) ;
#332 = CIRCLE ( 'NONE', #416, 15.00000000000000000 ) ;
#333 = VERTEX_POINT ( 'NONE', #868 ) ;
#334 = CARTESIAN_POINT ( 'NONE',  ( 2.846708613295416690, -1.749692151690553921, -4.930643952571713839 ) ) ;
#335 = DIRECTION ( 'NONE',  ( 0.3213938048432666283, -0.7660444431189745718, -0.5566703992264260270 ) ) ;
#336 = CARTESIAN_POINT ( 'NONE',  ( 3.550216698806160753, 4.765256049725326903, 13.77547242115532278 ) ) ;
#337 = CYLINDRICAL_SURFACE ( 'NONE', #871, 0.9000000000000000222 ) ;
#338 = EDGE_CURVE ( 'NONE', #658, #746, #365, .T. ) ;
#339 = FACE_OUTER_BOUND ( 'NONE', #188, .T. ) ;
#340 = APPLICATION_PROTOCOL_DEFINITION ( 'international standard', 'config_control_design', 1994, #296 ) ;
#341 = EDGE_LOOP ( 'NONE', ( #889, #98, #521, #921 ) ) ;
#342 = CARTESIAN_POINT ( 'NONE',  ( -5.339567005217308093, 9.999296635046333037, -9.827579898606835229 ) ) ;
#343 = CARTESIAN_POINT ( 'NONE',  ( 0.000000000000000000, -19.00000000000000000, 0.9000000000000000222 ) ) ;
#344 = ADVANCED_FACE ( 'NONE', ( #722 ), #583, .T. ) ;
#345 = APPROVAL_ROLE ( '' ) ;
#346 = VERTEX_POINT ( 'NONE', #219 ) ;
#347 = CARTESIAN_POINT ( 'NONE',  ( -9.313196548239361050, 7.710767732589672185, -8.881759927278562117 ) ) ;
#348 = CIRCLE ( 'NONE', #63, 0.8999999999998552491 ) ;
#349 = DIRECTION ( 'NONE',  ( 0.3213938048432743444, -0.7660444431189745718, 0.5566703992264215861 ) ) ;
#350 = FACE_OUTER_BOUND ( 'NONE', #866, .T. ) ;
#351 = CARTESIAN_POINT ( 'NONE',  ( -7.542620151879596335, 9.427514734427932197, -8.905541478450983206 ) ) ;
#352 = DIRECTION ( 'NONE',  ( 0.3213938048432666283, -0.7660444431189745718, -0.5566703992264260270 ) ) ;
#353 = EDGE_CURVE ( 'NONE', #510, #756, #431, .T. ) ;
#354 = DIRECTION ( 'NONE',  ( 0.6427876096865435818, 0.7660444431189745718, 0.000000000000000000 ) ) ;
#355 = ORIENTED_EDGE ( 'NONE', *, *, #671, .F. ) ;
#356 = CARTESIAN_POINT ( 'NONE',  ( 2.700608597735108862, -13.99381480538303180, 4.677591302634497517 ) ) ;
#357 = EDGE_CURVE ( 'NONE', #221, #623, #218, .T. ) ;
#358 = CARTESIAN_POINT ( 'NONE',  ( 3.511415868648513516, 8.944869392974492683, 11.52115549212137502 ) ) ;
#359 = ORIENTED_EDGE ( 'NONE', *, *, #406, .T. ) ;
#360 = FACE_OUTER_BOUND ( 'NONE', #364, .T. ) ;
#361 = AXIS2_PLACEMENT_3D ( 'NONE', #367, #302, #236 ) ;
#362 = CARTESIAN_POINT ( 'NONE',  ( 2.996826425148460427, 6.506586515520572434, 13.19065562982240181 ) ) ;
#363 = CARTESIAN_POINT ( 'NONE',  ( -10.04057483412068663, 5.999999999999999112, -9.390785749894540402 ) ) ;
#364 = EDGE_LOOP ( 'NONE', ( #707, #180, #573, #680 ) ) ;
#365 = B_SPLINE_CURVE_WITH_KNOTS ( 'NONE', 3,
 ( #425, #362, #70, #493, #432, #358, #298, #12, #716, #228, #794, #637, #513, #645, #712, #576, #436, #423, #923, #654, #1, #294, #572, #725, #863, #226, #498, #17, #148, #301 ),
 .UNSPECIFIED., .F., .F.,
 ( 4, 2, 2, 2, 2, 2, 2, 2, 2, 2, 2, 2, 2, 2, 4 ),
 ( 0.01415975755066313686, 0.01580864200206814549, 0.01745752645347315238, 0.01828196867917565582, 0.01910641090487816274, 0.01993085313058066271, 0.02075529535628316963, 0.02157973758198567307, 0.02240417980768817652, 0.02322862203339068343, 0.02405306425909318341, 0.02487750648479568338, 0.02570194871049818336, 0.02652639093620068680, 0.02735083316190318678 ),
 .UNSPECIFIED. ) ;
#366 = DIRECTION ( 'NONE',  ( 0.7071067811865561215, -0.7071067811865389130, -5.051514762044462259E-15 ) ) ;
#367 = CARTESIAN_POINT ( 'NONE',  ( 4.949747468305899289, -4.949747468305777609, -3.512815038853034366E-14 ) ) ;
#368 = ORIENTED_EDGE ( 'NONE', *, *, #531, .F. ) ;
#369 = CARTESIAN_POINT ( 'NONE',  ( -5.293746310506434405, -10.58749262101265565, 9.169037572177487050 ) ) ;
#370 = APPROVAL_DATE_TIME ( #877, #445 ) ;
#371 = EDGE_CURVE ( 'NONE', #587, #664, #798, .T. ) ;
#372 = FACE_OUTER_BOUND ( 'NONE', #490, .T. ) ;
#373 = DIRECTION ( 'NONE',  ( 0.000000000000000000, -0.6546536707079867456, 0.7559289460184460685 ) ) ;
#374 = CONICAL_SURFACE ( 'NONE', #778, 5.000000000000001776, 0.1745329251994333364 ) ;
#375 = CIRCLE ( 'NONE', #246, 3.236730192915347359 ) ;
#376 = DIRECTION ( 'NONE',  ( 0.3213938048432744554, -0.7660444431189745718, 0.5566703992264216971 ) ) ;
#377 = ORIENTED_EDGE ( 'NONE', *, *, #234, .F. ) ;
#378 = PLANE ( 'NONE',  #204 ) ;
#379 = FACE_OUTER_BOUND ( 'NONE', #820, .T. ) ;
#380 = CC_DESIGN_PERSON_AND_ORGANIZATION_ASSIGNMENT ( #590, #19, ( #418 ) ) ;
#381 = DIRECTION ( 'NONE',  ( -0.5000000000000043299, -0.8660254037844361541, 0.000000000000000000 ) ) ;
#382 = ORIENTED_EDGE ( 'NONE', *, *, #353, .T. ) ;
#383 = DIRECTION ( 'NONE',  ( 0.3535533905932765619, 0.7071067811865388020, -0.6123724356958029080 ) ) ;
#384 = CARTESIAN_POINT ( 'NONE',  ( -10.04057483412068663, 5.999999999999999112, -9.390785749894540402 ) ) ;
#385 = DIRECTION ( 'NONE',  ( -0.3830222215594903945, -0.6427876096865434707, -0.6634139481689337314 ) ) ;
#386 = ORIENTED_EDGE ( 'NONE', *, *, #535, .T. ) ;
#387 = CARTESIAN_POINT ( 'NONE',  ( 1.102182119232617788E-16, -19.00000000000000000, -0.9000000000000000222 ) ) ;
#388 = VECTOR ( 'NONE', #383, 1000.000000000000114 ) ;
#389 = CIRCLE ( 'NONE', #187, 0.8999999999998552491 ) ;
#390 = CARTESIAN_POINT ( 'NONE',  ( 6.959666025105875953, 2.027297660891085762, 13.13498519408542542 ) ) ;
#391 = CC_DESIGN_APPROVAL ( #783, ( #250 ) ) ;
#392 = EDGE_LOOP ( 'NONE', ( #403, #382, #35, #325 ) ) ;
#393 = DIRECTION ( 'NONE',  ( -0.000000000000000000, 1.000000000000000000, -0.000000000000000000 ) ) ;
#394 = CARTESIAN_POINT ( 'NONE',  ( 10.04434215582621093, 4.066128534802748717, 10.37556645574351855 ) ) ;
#395 = ORIENTED_EDGE ( 'NONE', *, *, #535, .F. ) ;
#396 = DIRECTION ( 'NONE',  ( -0.3535533905932765619, -0.7071067811865389130, 0.6123724356958030191 ) ) ;
#397 = CARTESIAN_POINT ( 'NONE',  ( 4.296478466697584153, 3.630799937301705693, 13.90799740100336201 ) ) ;
#398 = EDGE_LOOP ( 'NONE', ( #318, #407 ) ) ;
#399 = FACE_OUTER_BOUND ( 'NONE', #392, .T. ) ;
#400 = CARTESIAN_POINT ( 'NONE',  ( -0.5891883036370813009, -0.5891883036370934024, -0.3401680257082405623 ) ) ;
#401 = CARTESIAN_POINT ( 'NONE',  ( 3.815200701002244621, 4.291947867451906262, 13.85997010704149446 ) ) ;
#402 = AXIS2_PLACEMENT_3D ( 'NONE', #199, #311, #593 ) ;
#403 = ORIENTED_EDGE ( 'NONE', *, *, #437, .F. ) ;
#404 = CARTESIAN_POINT ( 'NONE',  ( -2.474873734152939875, -4.949747468305777609, -4.286607049870624131 ) ) ;
#405 = DIRECTION ( 'NONE',  ( -0.7071067811865561215, 0.7071067811865389130, 5.051514762044462259E-15 ) ) ;
#406 = EDGE_CURVE ( 'NONE', #11, #765, #5, .T. ) ;
#407 = ORIENTED_EDGE ( 'NONE', *, *, #867, .T. ) ;
#408 = CARTESIAN_POINT ( 'NONE',  ( 11.22388872408068927, -9.951096517944860054, 6.162975822039154730E-30 ) ) ;
#409 = EDGE_CURVE ( 'NONE', #897, #3, #107, .T. ) ;
#410 = DIRECTION ( 'NONE',  ( 0.000000000000000000, -0.6546536707079867456, 0.7559289460184460685 ) ) ;
#411 = CALENDAR_DATE ( 2026, 18, 2 ) ;
#412 = CARTESIAN_POINT ( 'NONE',  ( -3.034586665155823315, 7.706083616307842554, -12.50933463000057522 ) ) ;
#413 = DIRECTION ( 'NONE',  ( 0.2500000000000041078, -0.8660254037844361541, 0.4330127018922219073 ) ) ;
#414 = COORDINATED_UNIVERSAL_TIME_OFFSET ( 8, 0, .AHEAD. ) ;
#415 = CARTESIAN_POINT ( 'NONE',  ( -8.814202846611861375, 8.366611922169976623, -8.796936783021637396 ) ) ;
#416 = AXIS2_PLACEMENT_3D ( 'NONE', #578, #77, #310 ) ;
#417 = EDGE_CURVE ( 'NONE', #346, #452, #815, .T. ) ;
#418 = PRODUCT_DEFINITION_FORMATION_WITH_SPECIFIED_SOURCE ( 'ä»', '', #841, .NOT_KNOWN. ) ;
#419 = FACE_OUTER_BOUND ( 'NONE', #78, .T. ) ;
#420 = APPROVAL_ROLE ( '' ) ;
#421 = EDGE_CURVE ( 'NONE', #452, #473, #446, .T. ) ;
#422 = CARTESIAN_POINT ( 'NONE',  ( -6.817790455227154212, 9.775622034017033002, -9.112158823690652554 ) ) ;
#423 = CARTESIAN_POINT ( 'NONE',  ( 7.302417660637708252, 9.560761636501927896, 8.963431789322820364 ) ) ;
#424 = DIRECTION ( 'NONE',  ( 0.000000000000000000, 1.000000000000000000, 0.000000000000000000 ) ) ;
#425 = CARTESIAN_POINT ( 'NONE',  ( 3.112371603845176526, 5.999999999999996447, 13.39078574989452264 ) ) ;
#426 = ADVANCED_FACE ( 'NONE', ( #620 ), #378, .T. ) ;
#427 = PERSON_AND_ORGANIZATION ( #454, #450 ) ;
#428 = CARTESIAN_POINT ( 'NONE',  ( -7.669854017460549400, 2.000019424557039738, -12.73765625183824390 ) ) ;
#429 = VERTEX_POINT ( 'NONE', #273 ) ;
#430 = AXIS2_PLACEMENT_3D ( 'NONE', #258, #887, #241 ) ;
#431 = CIRCLE ( 'NONE', #860, 0.8999999999998560263 ) ;
#432 = CARTESIAN_POINT ( 'NONE',  ( 3.187428640273702651, 8.375673124710145245, 12.04157021760858370 ) ) ;
#433 = EDGE_LOOP ( 'NONE', ( #229, #761 ) ) ;
#434 = LINE ( 'NONE', #82, #140 ) ;
#435 = EDGE_LOOP ( 'NONE', ( #18, #732 ) ) ;
#436 = CARTESIAN_POINT ( 'NONE',  ( 6.815238784118911042, 9.776580204714361955, 9.113044278311830837 ) ) ;
#437 = EDGE_CURVE ( 'NONE', #510, #526, #48, .T. ) ;
#438 = COORDINATED_UNIVERSAL_TIME_OFFSET ( 8, 0, .AHEAD. ) ;
#439 = CARTESIAN_POINT ( 'NONE',  ( -5.693417226590926639, -1.749692151690554809, 3.963851270457374628E-16 ) ) ;
#440 = VERTEX_POINT ( 'NONE', #663 ) ;
#441 = DIRECTION ( 'NONE',  ( 0.000000000000000000, 1.000000000000000000, 0.000000000000000000 ) ) ;
#442 = ORIENTED_EDGE ( 'NONE', *, *, #338, .F. ) ;
#443 = CARTESIAN_POINT ( 'NONE',  ( -9.567132074586305990, 3.047752149124200116, -11.14708096568402951 ) ) ;
#444 = VERTEX_POINT ( 'NONE', #517 ) ;
#445 = APPROVAL ( #161, 'æœª' ) ;
#446 = LINE ( 'NONE', #686, #571 ) ;
#447 = CONICAL_SURFACE ( 'NONE', #581, 5.000000000000001776, 0.1745329251994333364 ) ;
#448 = AXIS2_PLACEMENT_3D ( 'NONE', #731, #240, #25 ) ;
#449 = CARTESIAN_POINT ( 'NONE',  ( 10.58749262101291144, -10.58749262101265565, -7.563620755883141429E-14 ) ) ;
#450 = ORGANIZATION ( 'æœª', 'æœª', '' ) ;
#451 = CARTESIAN_POINT ( 'NONE',  ( -5.521588379883858977, 2.569113147978105971, -13.71081057446996709 ) ) ;
#452 = VERTEX_POINT ( 'NONE', #334 ) ;
#453 = DIRECTION ( 'NONE',  ( 0.6546536707079734230, 0.6546536707079867456, 0.3779644730092169280 ) ) ;
#454 = PERSON ( 'æœª', 'æœª', 'æœª', ('æœª'), ('æœª'), ('æœª') ) ;
#455 = PLANE ( 'NONE',  #430 ) ;
#456 = CARTESIAN_POINT ( 'NONE',  ( 0.000000000000000000, -0.5891883036370934024, 0.6803360514164921158 ) ) ;
#457 = ORIENTED_EDGE ( 'NONE', *, *, #640, .T. ) ;
#458 = CARTESIAN_POINT ( 'NONE',  ( -2.474873734152939875, -4.949747468305777609, -4.286607049870624131 ) ) ;
#459 = CARTESIAN_POINT ( 'NONE',  ( 1.606969024216372111, -3.830222215594872637, 2.783351996132107598 ) ) ;
#460 = ORIENTED_EDGE ( 'NONE', *, *, #314, .T. ) ;
#461 = AXIS2_PLACEMENT_3D ( 'NONE', #111, #678, #115 ) ;
#462 = CARTESIAN_POINT ( 'NONE',  ( 4.360559164668817544, -5.538935771942871789, -0.3401680257082759229 ) ) ;
#463 = AXIS2_PLACEMENT_3D ( 'NONE', #870, #231, #509 ) ;
#464 = APPROVAL_PERSON_ORGANIZATION ( #648, #445, #728 ) ;
#465 = DIRECTION ( 'NONE',  ( -0.3535533905932766174, -0.7071067811865389130, 0.6123724356958030191 ) ) ;
#466 = ORIENTED_EDGE ( 'NONE', *, *, #625, .T. ) ;
#467 = CARTESIAN_POINT ( 'NONE',  ( 0.5891883036370813009, 0.5891883036370934024, 0.3401680257082406733 ) ) ;
#468 = CARTESIAN_POINT ( 'NONE',  ( 10.09711383599045043, 5.752115178916996641, 9.488714173742195612 ) ) ;
#469 = EDGE_LOOP ( 'NONE', ( #512, #386, #326, #87 ) ) ;
#470 = DIRECTION ( 'NONE',  ( -0.6427876096865435818, -0.7660444431189745718, -0.000000000000000000 ) ) ;
#471 = DIRECTION ( 'NONE',  ( -0.000000000000000000, 1.000000000000000000, -0.000000000000000000 ) ) ;
#472 = CARTESIAN_POINT ( 'NONE',  ( 9.569864717253503628, 3.051876833382120235, 11.14351743132113803 ) ) ;
#473 = VERTEX_POINT ( 'NONE', #546 ) ;
#474 = CARTESIAN_POINT ( 'NONE',  ( -0.5891883036370767490, 0.5891883036370934024, 0.3401680257082487224 ) ) ;
#475 = DIRECTION ( 'NONE',  ( 0.3535533905932767840, 0.7071067811865389130, 0.6123724356958027970 ) ) ;
#476 = CARTESIAN_POINT ( 'NONE',  ( 0.000000000000000000, 0.000000000000000000, 0.000000000000000000 ) ) ;
#477 = AXIS2_PLACEMENT_3D ( 'NONE', #252, #186, #385 ) ;
#478 = ORIENTED_EDGE ( 'NONE', *, *, #805, .F. ) ;
#479 = ADVANCED_FACE ( 'NONE', ( #898 ), #28, .F. ) ;
#480 = CARTESIAN_POINT ( 'NONE',  ( -8.216999587977250386, 8.948841882703247208, -8.802031655667976295 ) ) ;
#481 = LINE ( 'NONE', #343, #554 ) ;
#482 = APPROVAL_STATUS ( 'not_yet_approved' ) ;
#483 = DIRECTION ( 'NONE',  ( 0.6546536707079680939, -0.6546536707079867456, -0.3779644730092260874 ) ) ;
#484 = DIRECTION ( 'NONE',  ( 0.6427876096865435818, 0.7660444431189745718, 0.000000000000000000 ) ) ;
#485 =( NAMED_UNIT ( * ) PLANE_ANGLE_UNIT ( ) SI_UNIT ( $, .RADIAN. ) );
#486 = VERTEX_POINT ( 'NONE', #202 ) ;
#487 = CARTESIAN_POINT ( 'NONE',  ( -3.639124012305428923, 9.116687086024485964, -11.34543743473927258 ) ) ;
#488 = DIRECTION ( 'NONE',  ( 0.000000000000000000, 0.000000000000000000, 1.000000000000000000 ) ) ;
#489 = CARTESIAN_POINT ( 'NONE',  ( -11.73944158471153187, 5.999999999999998224, -12.33330927720734671 ) ) ;
#490 = EDGE_LOOP ( 'NONE', ( #541, #831, #684, #478 ) ) ;
#491 = DIRECTION ( 'NONE',  ( -0.8660254037844397068, 0.000000000000000000, 0.4999999999999982792 ) ) ;
#492 = AXIS2_PLACEMENT_3D ( 'NONE', #514, #227, #807 ) ;
#493 = CARTESIAN_POINT ( 'NONE',  ( 3.059191481491093434, 7.946248226940802795, 12.36161721220283560 ) ) ;
#494 = ORIENTED_EDGE ( 'NONE', *, *, #357, .F. ) ;
#495 = PERSON_AND_ORGANIZATION ( #454, #450 ) ;
#496 = EDGE_LOOP ( 'NONE', ( #368, #836 ) ) ;
#497 = CARTESIAN_POINT ( 'NONE',  ( -9.707952354644767468, 6.994996862090927969, -9.049954180861451647 ) ) ;
#498 = CARTESIAN_POINT ( 'NONE',  ( 9.709100224770860876, 6.992580743436724866, 9.050613820050175562 ) ) ;
#499 = DIRECTION ( 'NONE',  ( -0.6427876096865435818, -0.7660444431189745718, 0.000000000000000000 ) ) ;
#500 = EDGE_LOOP ( 'NONE', ( #118, #442, #74, #560 ) ) ;
#501 = CARTESIAN_POINT ( 'NONE',  ( 4.561130746712988682, -10.87148790737402315, 7.900110193271383530 ) ) ;
#502 = EDGE_CURVE ( 'NONE', #756, #486, #879, .T. ) ;
#503 = EDGE_LOOP ( 'NONE', ( #908, #826 ) ) ;
#504 = DATE_TIME_ROLE ( 'classification_date' ) ;
#505 = CARTESIAN_POINT ( 'NONE',  ( -10.09594178758973015, 4.294060065935137338, -10.23273367995743399 ) ) ;
#506 = VECTOR ( 'NONE', #96, 1000.000000000000000 ) ;
#507 = EDGE_CURVE ( 'NONE', #596, #68, #389, .T. ) ;
#508 = AXIS2_PLACEMENT_3D ( 'NONE', #561, #922, #491 ) ;
#509 = DIRECTION ( 'NONE',  ( 0.000000000000000000, 0.5878588831525581870, 0.8089634933040099618 ) ) ;
#510 = VERTEX_POINT ( 'NONE', #31 ) ;
#511 = CARTESIAN_POINT ( 'NONE',  ( -6.951169492941402517, 2.028655386238855218, -13.13925773003884601 ) ) ;
#512 = ORIENTED_EDGE ( 'NONE', *, *, #137, .F. ) ;
#513 = CARTESIAN_POINT ( 'NONE',  ( 5.342878537320533638, 9.999328061014114866, 9.825648510722230000 ) ) ;
#514 = CARTESIAN_POINT ( 'NONE',  ( 0.000000000000000000, 0.000000000000000000, 0.000000000000000000 ) ) ;
#515 = ADVANCED_FACE ( 'NONE', ( #832, #882, #742, #124 ), #264, .T. ) ;
#516 = ORIENTED_EDGE ( 'NONE', *, *, #210, .F. ) ;
#517 = CARTESIAN_POINT ( 'NONE',  ( 0.000000000000000000, -7.000000000000000000, 0.9000000000000000222 ) ) ;
#518 = EDGE_CURVE ( 'NONE', #814, #429, #319, .T. ) ;
#519 = CARTESIAN_POINT ( 'NONE',  ( 0.8999999999999962474, -14.97297565616133674, 0.000000000000000000 ) ) ;
#520 = CARTESIAN_POINT ( 'NONE',  ( -7.898632609529460780, 2.027731870746490639, -12.59267050084823225 ) ) ;
#521 = ORIENTED_EDGE ( 'NONE', *, *, #274, .T. ) ;
#522 = FACE_OUTER_BOUND ( 'NONE', #607, .T. ) ;
#523 = AXIS2_PLACEMENT_3D ( 'NONE', #789, #441, #154 ) ;
#524 = FACE_OUTER_BOUND ( 'NONE', #500, .T. ) ;
#525 = DIRECTION ( 'NONE',  ( 0.3535533905932767285, 0.7071067811865388020, 0.6123724356958026860 ) ) ;
#526 = VERTEX_POINT ( 'NONE', #762 ) ;
#527 = CC_DESIGN_PERSON_AND_ORGANIZATION_ASSIGNMENT ( #427, #85, ( #753 ) ) ;
#528 = PLANE ( 'NONE',  #34 ) ;
#529 = FACE_OUTER_BOUND ( 'NONE', #108, .T. ) ;
#530 = ORIENTED_EDGE ( 'NONE', *, *, #773, .T. ) ;
#531 = EDGE_CURVE ( 'NONE', #160, #876, #173, .T. ) ;
#532 = DIRECTION ( 'NONE',  ( -0.6546536707079682049, 0.6546536707079867456, 0.3779644730092261429 ) ) ;
#533 = DIRECTION ( 'NONE',  ( 0.3213938048432744554, -0.7660444431189745718, 0.5566703992264216971 ) ) ;
#534 = ORIENTED_EDGE ( 'NONE', *, *, #36, .F. ) ;
#535 = EDGE_CURVE ( 'NONE', #750, #814, #692, .T. ) ;
#536 = CIRCLE ( 'NONE', #203, 0.8999999999998552491 ) ;
#537 = LINE ( 'NONE', #467, #899 ) ;
#538 = CIRCLE ( 'NONE', #293, 3.236730192915347804 ) ;
#539 = AXIS2_PLACEMENT_3D ( 'NONE', #33, #182, #320 ) ;
#540 = CARTESIAN_POINT ( 'NONE',  ( 5.082303838371669436, 2.872842369597637280, 13.82002941322538980 ) ) ;
#541 = ORIENTED_EDGE ( 'NONE', *, *, #847, .T. ) ;
#542 = CARTESIAN_POINT ( 'NONE',  ( -9.641814145298154060, -11.49066664678462324, 0.000000000000000000 ) ) ;
#543 = DIRECTION ( 'NONE',  ( 1.000000000000000000, 0.000000000000000000, 0.000000000000000000 ) ) ;
#544 = DIRECTION ( 'NONE',  ( 0.000000000000000000, 0.000000000000000000, 1.000000000000000000 ) ) ;
#545 = EDGE_LOOP ( 'NONE', ( #359, #651, #730, #619, #249, #355, #150, #494, #516 ) ) ;
#546 = CARTESIAN_POINT ( 'NONE',  ( 6.421652895690711738, -7.749161009365014507, -11.12262908390835747 ) ) ;
#547 = ADVANCED_FACE ( 'NONE', ( #53 ), #337, .F. ) ;
#548 = LINE ( 'NONE', #766, #292 ) ;
#549 = CARTESIAN_POINT ( 'NONE',  ( 0.000000000000000000, 0.000000000000000000, 0.000000000000000000 ) ) ;
#550 = ORIENTED_EDGE ( 'NONE', *, *, #133, .F. ) ;
#551 = DIRECTION ( 'NONE',  ( -0.000000000000000000, 1.000000000000000000, -0.000000000000000000 ) ) ;
#552 = DIRECTION ( 'NONE',  ( 1.000000000000000000, 0.000000000000000000, 0.000000000000000000 ) ) ;
#553 = PERSON_AND_ORGANIZATION_ROLE ( 'creator' ) ;
#554 = VECTOR ( 'NONE', #131, 1000.000000000000000 ) ;
#555 = AXIS2_PLACEMENT_3D ( 'NONE', #309, #772, #483 ) ;
#556 = CARTESIAN_POINT ( 'NONE',  ( -3.296417944892655161, 8.567005678617281461, -11.86658394511999859 ) ) ;
#557 = CIRCLE ( 'NONE', #721, 3.236730192915349136 ) ;
#558 = DIRECTION ( 'NONE',  ( -0.6546536707079734230, -0.6546536707079868567, -0.3779644730092169835 ) ) ;
#559 = DATE_AND_TIME ( #411, #265 ) ;
#560 = ORIENTED_EDGE ( 'NONE', *, *, #614, .F. ) ;
#561 = CARTESIAN_POINT ( 'NONE',  ( -8.275339969573776600, 5.999999999999998224, -14.33330927720733783 ) ) ;
#562 = ADVANCED_FACE ( 'NONE', ( #522 ), #752, .F. ) ;
#563 = CARTESIAN_POINT ( 'NONE',  ( -3.213938048432716688, -3.830222215594875745, 0.000000000000000000 ) ) ;
#564 = ORIENTED_EDGE ( 'NONE', *, *, #805, .T. ) ;
#565 = CARTESIAN_POINT ( 'NONE',  ( -2.986836594567019443, 7.238493613964500639, -12.79683207567997094 ) ) ;
#566 = DIRECTION ( 'NONE',  ( 0.000000000000000000, 0.5878588831525612957, -0.8089634933040076303 ) ) ;
#567 = COORDINATED_UNIVERSAL_TIME_OFFSET ( 8, 0, .AHEAD. ) ;
#568 = EDGE_LOOP ( 'NONE', ( #534, #84, #263, #145, #114 ) ) ;
#569 = AXIS2_PLACEMENT_3D ( 'NONE', #62, #349, #838 ) ;
#570 = DIRECTION ( 'NONE',  ( 0.6546536707079683159, -0.6546536707079867456, -0.3779644730092260874 ) ) ;
#571 = VECTOR ( 'NONE', #95, 1000.000000000000000 ) ;
#572 = CARTESIAN_POINT ( 'NONE',  ( 8.812280259505703484, 8.368773782373555292, 8.796800085592284546 ) ) ;
#573 = ORIENTED_EDGE ( 'NONE', *, *, #726, .F. ) ;
#574 = DIRECTION ( 'NONE',  ( 1.000000000000000000, 0.000000000000000000, 0.000000000000000000 ) ) ;
#575 = ADVANCED_FACE ( 'NONE', ( #316 ), #305, .F. ) ;
#576 = CARTESIAN_POINT ( 'NONE',  ( 6.567632879884765629, 9.859950714358877377, 9.204662318877948834 ) ) ;
#577 = ADVANCED_FACE ( 'NONE', ( #399 ), #89, .F. ) ;
#578 = CARTESIAN_POINT ( 'NONE',  ( 0.000000000000000000, 0.000000000000000000, 0.000000000000000000 ) ) ;
#579 = DIRECTION ( 'NONE',  ( 0.000000000000000000, 0.6546536707079868567, -0.7559289460184460685 ) ) ;
#580 = CARTESIAN_POINT ( 'NONE',  ( -10.09769323126650065, 5.749574927241302369, -9.489717715796905040 ) ) ;
#581 = AXIS2_PLACEMENT_3D ( 'NONE', #880, #170, #821 ) ;
#582 = CIRCLE ( 'NONE', #736, 0.9000000000000000222 ) ;
#583 = PLANE ( 'NONE',  #75 ) ;
#584 = ORIENTED_EDGE ( 'NONE', *, *, #757, .F. ) ;
#585 = CALENDAR_DATE ( 2026, 18, 2 ) ;
#586 = CYLINDRICAL_SURFACE ( 'NONE', #492, 0.8999999999998553601 ) ;
#587 = VERTEX_POINT ( 'NONE', #130 ) ;
#588 = CARTESIAN_POINT ( 'NONE',  ( -13.47203636089302670, -8.276728598351903443, 6.123233995736767268E-16 ) ) ;
#589 = DIRECTION ( 'NONE',  ( 0.000000000000000000, -0.6546536707079867456, 0.7559289460184460685 ) ) ;
#590 = PERSON_AND_ORGANIZATION ( #454, #450 ) ;
#591 = CARTESIAN_POINT ( 'NONE',  ( -10.16200421261367914, 5.010355427451765209, -9.833817429836686941 ) ) ;
#592 = ORIENTED_EDGE ( 'NONE', *, *, #417, .T. ) ;
#593 = DIRECTION ( 'NONE',  ( 0.000000000000000000, -0.000000000000000000, 1.000000000000000000 ) ) ;
#594 = CARTESIAN_POINT ( 'NONE',  ( 11.17668092464999319, -9.998304317375561467, 0.3401680257081650671 ) ) ;
#595 = CARTESIAN_POINT ( 'NONE',  ( -3.549808375254809967, 4.766287240572815165, -13.77518058411952673 ) ) ;
#596 = VERTEX_POINT ( 'NONE', #408 ) ;
#597 = CC_DESIGN_PERSON_AND_ORGANIZATION_ASSIGNMENT ( #289, #553, ( #250 ) ) ;
#598 = CIRCLE ( 'NONE', #304, 4.857478350479742524 ) ;
#599 = AXIS2_PLACEMENT_3D ( 'NONE', #79, #366, #650 ) ;
#600 = ORIENTED_EDGE ( 'NONE', *, *, #773, .F. ) ;
#601 = AXIS2_PLACEMENT_3D ( 'NONE', #822, #888, #544 ) ;
#602 = CARTESIAN_POINT ( 'NONE',  ( 8.941592134328812946, 2.440749336570058770, 11.79685166530390461 ) ) ;
#603 = ORIENTED_EDGE ( 'NONE', *, *, #234, .T. ) ;
#604 = PLANE ( 'NONE',  #461 ) ;
#605 = CARTESIAN_POINT ( 'NONE',  ( 10.15480714057245315, 4.767323290989234685, 9.961258636572265956 ) ) ;
#606 = EDGE_CURVE ( 'NONE', #746, #769, #865, .T. ) ;
#607 = EDGE_LOOP ( 'NONE', ( #395, #183, #9, #377 ) ) ;
#608 = EDGE_LOOP ( 'NONE', ( #616, #823 ) ) ;
#609 = CARTESIAN_POINT ( 'NONE',  ( 9.897184923123456102, 3.632631053773152097, 10.67353325319481705 ) ) ;
#610 = ORIENTED_EDGE ( 'NONE', *, *, #133, .T. ) ;
#611 = DIRECTION ( 'NONE',  ( 0.7071067811865561215, -0.7071067811865389130, -5.051514762044462259E-15 ) ) ;
#612 = LINE ( 'NONE', #400, #106 ) ;
#613 = AXIS2_PLACEMENT_3D ( 'NONE', #404, #243, #373 ) ;
#614 = EDGE_CURVE ( 'NONE', #769, #123, #16, .T. ) ;
#615 = DIRECTION ( 'NONE',  ( -0.3213938048432666283, 0.7660444431189745718, 0.5566703992264260270 ) ) ;
#616 = ORIENTED_EDGE ( 'NONE', *, *, #338, .T. ) ;
#617 = DIRECTION ( 'NONE',  ( 0.3535533905932765619, 0.7071067811865388020, -0.6123724356958029080 ) ) ;
#618 = DIRECTION ( 'NONE',  ( 0.7660444431189744607, -0.6427876096865434707, 0.000000000000000000 ) ) ;
#619 = ORIENTED_EDGE ( 'NONE', *, *, #911, .T. ) ;
#620 = FACE_OUTER_BOUND ( 'NONE', #503, .T. ) ;
#621 = DIRECTION ( 'NONE',  ( -0.6427876096865435818, -0.7660444431189745718, 0.000000000000000000 ) ) ;
#622 = APPROVAL_DATE_TIME ( #924, #783 ) ;
#623 = VERTEX_POINT ( 'NONE', #631 ) ;
#624 = CARTESIAN_POINT ( 'NONE',  ( 0.000000000000000000, -14.97297565616133674, 0.000000000000000000 ) ) ;
#625 = EDGE_CURVE ( 'NONE', #208, #44, #688, .T. ) ;
#626 = DIRECTION ( 'NONE',  ( 0.000000000000000000, 0.000000000000000000, 1.000000000000000000 ) ) ;
#627 = AXIS2_PLACEMENT_3D ( 'NONE', #121, #141, #488 ) ;
#628 = DATE_AND_TIME ( #859, #307 ) ;
#629 = AXIS2_PLACEMENT_3D ( 'NONE', #624, #848, #917 ) ;
#630 = ORIENTED_EDGE ( 'NONE', *, *, #518, .F. ) ;
#631 = CARTESIAN_POINT ( 'NONE',  ( 9.998304317375829697, -11.17668092464974805, -0.3401680257083161685 ) ) ;
#632 = CARTESIAN_POINT ( 'NONE',  ( 9.951096517945133613, -11.22388872408044769, 6.162975822039154730E-30 ) ) ;
#633 = ORIENTED_EDGE ( 'NONE', *, *, #873, .T. ) ;
#634 = CARTESIAN_POINT ( 'NONE',  ( -4.100005745021451986, 9.552588704588693247, -10.81730752636743453 ) ) ;
#635 = DIRECTION ( 'NONE',  ( -0.6546536707079733119, -0.6546536707079868567, -0.3779644730092170946 ) ) ;
#636 = CARTESIAN_POINT ( 'NONE',  ( -2.474873734152939875, -4.949747468305777609, 4.286607049870625907 ) ) ;
#637 = CARTESIAN_POINT ( 'NONE',  ( 5.107872635421206731, 9.969133576912499350, 9.980073913435974831 ) ) ;
#638 = ORIENTED_EDGE ( 'NONE', *, *, #409, .T. ) ;
#639 = SECURITY_CLASSIFICATION_LEVEL ( 'unclassified' ) ;
#640 = EDGE_CURVE ( 'NONE', #129, #11, #155, .T. ) ;
#641 = CIRCLE ( 'NONE', #125, 4.857478350479739859 ) ;
#642 = CARTESIAN_POINT ( 'NONE',  ( 0.000000000000000000, 0.000000000000000000, 0.000000000000000000 ) ) ;
#643 = VECTOR ( 'NONE', #194, 999.9999999999998863 ) ;
#644 = APPROVAL_PERSON_ORGANIZATION ( #495, #695, #345 ) ;
#645 = CARTESIAN_POINT ( 'NONE',  ( 5.820898920376654573, 10.00064906249880359, 9.548844719656004898 ) ) ;
#646 = ADVANCED_FACE ( 'NONE', ( #360 ), #285, .F. ) ;
#647 = ORIENTED_EDGE ( 'NONE', *, *, #149, .F. ) ;
#648 = PERSON_AND_ORGANIZATION ( #454, #450 ) ;
#649 = CARTESIAN_POINT ( 'NONE',  ( -9.428776626619711720, 2.874609422027161632, -11.30974748065601965 ) ) ;
#650 = DIRECTION ( 'NONE',  ( -0.7071067811865388020, -0.7071067811865562325, 0.000000000000000000 ) ) ;
#651 = ORIENTED_EDGE ( 'NONE', *, *, #207, .T. ) ;
#652 = DIRECTION ( 'NONE',  ( 0.000000000000000000, 0.5878588831525612957, -0.8089634933040076303 ) ) ;
#653 = EDGE_CURVE ( 'NONE', #440, #444, #582, .T. ) ;
#654 = CARTESIAN_POINT ( 'NONE',  ( 7.998345799672488710, 9.122387762184281712, 8.825247010196456188 ) ) ;
#655 = ORIENTED_EDGE ( 'NONE', *, *, #317, .F. ) ;
#656 = CARTESIAN_POINT ( 'NONE',  ( -3.812558480217429491, 4.296368969642244906, -13.85928732646081230 ) ) ;
#657 = CIRCLE ( 'NONE', #627, 0.9000000000000000222 ) ;
#658 = VERTEX_POINT ( 'NONE', #69 ) ;
#659 = AXIS2_PLACEMENT_3D ( 'NONE', #804, #165, #635 ) ;
#660 = AXIS2_PLACEMENT_3D ( 'NONE', #549, #907, #920 ) ;
#661 = DIRECTION ( 'NONE',  ( 1.224646799147353207E-16, 0.000000000000000000, -1.000000000000000000 ) ) ;
#662 = CARTESIAN_POINT ( 'NONE',  ( -8.549796821634620514, 2.222039566294968793, -12.12591053341924408 ) ) ;
#663 = CARTESIAN_POINT ( 'NONE',  ( 1.102182119232617788E-16, -7.000000000000000000, -0.9000000000000000222 ) ) ;
#664 = VERTEX_POINT ( 'NONE', #356 ) ;
#665 = CARTESIAN_POINT ( 'NONE',  ( -3.112371603845171641, 6.000000000000000000, -13.39078574989452264 ) ) ;
#666 = ORIENTED_EDGE ( 'NONE', *, *, #854, .F. ) ;
#667 = DIRECTION ( 'NONE',  ( 0.000000000000000000, 0.000000000000000000, 1.000000000000000000 ) ) ;
#668 = EDGE_CURVE ( 'NONE', #486, #526, #827, .T. ) ;
#669 = CARTESIAN_POINT ( 'NONE',  ( -8.275339969573776600, 5.999999999999998224, -14.33330927720733783 ) ) ;
#670 = DIRECTION ( 'NONE',  ( -0.3830222215594903945, -0.6427876096865436928, -0.6634139481689336204 ) ) ;
#671 = EDGE_CURVE ( 'NONE', #596, #429, #126, .T. ) ;
#672 = ORIENTED_EDGE ( 'NONE', *, *, #421, .T. ) ;
#673 = AXIS2_PLACEMENT_3D ( 'NONE', #669, #891, #41 ) ;
#674 = EDGE_CURVE ( 'NONE', #47, #190, #332, .T. ) ;
#675 = LINE ( 'NONE', #181, #506 ) ;
#676 = CARTESIAN_POINT ( 'NONE',  ( 5.527451946328259424, 2.565340489557154768, 13.70921411759873010 ) ) ;
#677 = ORIENTED_EDGE ( 'NONE', *, *, #266, .F. ) ;
#678 = DIRECTION ( 'NONE',  ( -0.6427876096865435818, -0.7660444431189745718, 0.000000000000000000 ) ) ;
#679 = CARTESIAN_POINT ( 'NONE',  ( 10.13354182026731998, 5.499944100185975238, 9.598782955587298105 ) ) ;
#680 = ORIENTED_EDGE ( 'NONE', *, *, #894, .F. ) ;
#681 = CC_DESIGN_PERSON_AND_ORGANIZATION_ASSIGNMENT ( #276, #845, ( #841 ) ) ;
#682 = FACE_OUTER_BOUND ( 'NONE', #341, .T. ) ;
#683 = CARTESIAN_POINT ( 'NONE',  ( 3.964172651791352919, 4.064876329966284452, 13.88657418929131104 ) ) ;
#684 = ORIENTED_EDGE ( 'NONE', *, *, #76, .T. ) ;
#685 = EDGE_CURVE ( 'NONE', #904, #750, #375, .T. ) ;
#686 = CARTESIAN_POINT ( 'NONE',  ( 6.736018180446404990, -8.276728598351903443, -11.66712572924108748 ) ) ;
#687 = AXIS2_PLACEMENT_3D ( 'NONE', #774, #57, #552 ) ;
#688 = CIRCLE ( 'NONE', #61, 0.8999999999998560263 ) ;
#689 = AXIS2_PLACEMENT_3D ( 'NONE', #775, #354, #58 ) ;
#690 = CARTESIAN_POINT ( 'NONE',  ( 10.04057483412068841, 5.999999999999999112, 9.390785749894536849 ) ) ;
#691 = ORIENTED_EDGE ( 'NONE', *, *, #109, .T. ) ;
#692 = LINE ( 'NONE', #588, #643 ) ;
#693 = CARTESIAN_POINT ( 'NONE',  ( 1.030996966999053523E-16, 0.5891883036370934024, -0.6803360514164921158 ) ) ;
#694 = MECHANICAL_CONTEXT ( 'NONE', #117, 'mechanical' ) ;
#695 = APPROVAL ( #482, 'æœª' ) ;
#696 = CARTESIAN_POINT ( 'NONE',  ( -4.811238354436020437, 5.999999999999999112, -16.33330927720733072 ) ) ;
#697 = SPHERICAL_SURFACE ( 'NONE', #687, 15.00000000000000000 ) ;
#698 = APPROVAL_DATE_TIME ( #559, #695 ) ;
#699 = ORIENTED_EDGE ( 'NONE', *, *, #847, .F. ) ;
#700 = CARTESIAN_POINT ( 'NONE',  ( -6.565243558395161827, 9.860445956463008699, -9.205735908763083231 ) ) ;
#701 = CARTESIAN_POINT ( 'NONE',  ( 0.000000000000000000, -19.00000000000000000, 0.000000000000000000 ) ) ;
#702 = AXIS2_PLACEMENT_3D ( 'NONE', #834, #475, #410 ) ;
#703 = EDGE_CURVE ( 'NONE', #452, #346, #538, .T. ) ;
#704 =( NAMED_UNIT ( * ) SI_UNIT ( $, .STERADIAN. ) SOLID_ANGLE_UNIT ( ) );
#705 = AXIS2_PLACEMENT_3D ( 'NONE', #905, #661, #270 ) ;
#706 = CC_DESIGN_SECURITY_CLASSIFICATION ( #753, ( #418 ) ) ;
#707 = ORIENTED_EDGE ( 'NONE', *, *, #890, .F. ) ;
#708 = CARTESIAN_POINT ( 'NONE',  ( -3.079749244259028629, 7.935533502419435337, -12.35389837715032080 ) ) ;
#709 = CARTESIAN_POINT ( 'NONE',  ( 0.000000000000000000, 0.000000000000000000, 0.000000000000000000 ) ) ;
#710 = CARTESIAN_POINT ( 'NONE',  ( 3.169539791456406963, 5.749356630130851187, 13.48980395541401123 ) ) ;
#711 = CARTESIAN_POINT ( 'NONE',  ( -4.470490918258376745, 9.769978019037354855, -10.47083476354899823 ) ) ;
#712 = CARTESIAN_POINT ( 'NONE',  ( 6.065835957988348071, 9.973006998018075109, 9.424595677659558746 ) ) ;
#713 = EDGE_LOOP ( 'NONE', ( #592, #874 ) ) ;
#714 = DIRECTION ( 'NONE',  ( 1.000000000000000000, 0.000000000000000000, 0.000000000000000000 ) ) ;
#715 = CARTESIAN_POINT ( 'NONE',  ( -5.293746310506437069, -10.58749262101265565, -9.169037572177483497 ) ) ;
#716 = CARTESIAN_POINT ( 'NONE',  ( 4.099821880726763901, 9.552643922952997357, 10.81738238853866285 ) ) ;
#717 = AXIS2_PLACEMENT_3D ( 'NONE', #563, #621, #618 ) ;
#718 = CARTESIAN_POINT ( 'NONE',  ( -3.244405975158147992, 5.504627185362861219, -13.57380684743602295 ) ) ;
#719 = AXIS2_PLACEMENT_3D ( 'NONE', #67, #352, #566 ) ;
#720 = ORIENTED_EDGE ( 'NONE', *, *, #867, .F. ) ;
#721 = AXIS2_PLACEMENT_3D ( 'NONE', #459, #533, #192 ) ;
#722 = FACE_OUTER_BOUND ( 'NONE', #496, .T. ) ;
#723 = CARTESIAN_POINT ( 'NONE',  ( -7.196707109015072490, 1.999980595646400072, -13.01084584267467470 ) ) ;
#724 = ORIENTED_EDGE ( 'NONE', *, *, #674, .F. ) ;
#725 = CARTESIAN_POINT ( 'NONE',  ( 9.156451512184794694, 7.938940750101559196, 8.843583278845697393 ) ) ;
#726 = EDGE_CURVE ( 'NONE', #123, #769, #112, .T. ) ;
#727 = VERTEX_POINT ( 'NONE', #872 ) ;
#728 = APPROVAL_ROLE ( '' ) ;
#729 = CARTESIAN_POINT ( 'NONE',  ( -4.704558006869357989, -11.17668092464974805, 8.828869546469238827 ) ) ;
#730 = ORIENTED_EDGE ( 'NONE', *, *, #674, .T. ) ;
#731 = CARTESIAN_POINT ( 'NONE',  ( 0.000000000000000000, 0.000000000000000000, 0.000000000000000000 ) ) ;
#732 = ORIENTED_EDGE ( 'NONE', *, *, #653, .F. ) ;
#733 = CARTESIAN_POINT ( 'NONE',  ( 1.606969024216332587, -3.830222215594875745, -2.783351996132129802 ) ) ;
#734 = AXIS2_PLACEMENT_3D ( 'NONE', #701, #471, #286 ) ;
#735 = ORIENTED_EDGE ( 'NONE', *, *, #184, .T. ) ;
#736 = AXIS2_PLACEMENT_3D ( 'NONE', #782, #424, #143 ) ;
#737 = CIRCLE ( 'NONE', #189, 0.8999999999998560263 ) ;
#738 = DIRECTION ( 'NONE',  ( 0.7071067811865562325, -0.7071067811865389130, -5.023759186428833345E-15 ) ) ;
#739 = LINE ( 'NONE', #387, #49 ) ;
#740 = CARTESIAN_POINT ( 'NONE',  ( -4.868943017822676467, 3.048964379345326492, -13.85899401847584045 ) ) ;
#741 = EDGE_LOOP ( 'NONE', ( #699, #328 ) ) ;
#742 = FACE_BOUND ( 'NONE', #201, .T. ) ;
#743 = DIRECTION ( 'NONE',  ( -0.7071067811865561215, 0.7071067811865389130, 5.051514762044462259E-15 ) ) ;
#744 = EDGE_CURVE ( 'NONE', #904, #190, #434, .T. ) ;
#745 = CARTESIAN_POINT ( 'NONE',  ( 4.820907072649116998, -11.49066664678462324, 8.350055988396325901 ) ) ;
#746 = VERTEX_POINT ( 'NONE', #803 ) ;
#747 = EDGE_CURVE ( 'NONE', #3, #897, #768, .T. ) ;
#748 = FACE_OUTER_BOUND ( 'NONE', #433, .T. ) ;
#749 = CARTESIAN_POINT ( 'NONE',  ( 9.115996533988910855, 2.571501501401969758, 11.63444732721068142 ) ) ;
#750 = VERTEX_POINT ( 'NONE', #439 ) ;
#751 = VECTOR ( 'NONE', #413, 1000.000000000000114 ) ;
#752 = CONICAL_SURFACE ( 'NONE', #280, 5.000000000000001776, 0.1745329251994333364 ) ;
#753 = SECURITY_CLASSIFICATION ( '', '', #639 ) ;
#754 = CARTESIAN_POINT ( 'NONE',  ( 2.905795964851664248, -14.70460469521734126, 5.032986247551655801 ) ) ;
#755 = DIRECTION ( 'NONE',  ( -0.7071067811865388020, -0.7071067811865562325, -1.083577672034152910E-13 ) ) ;
#756 = VERTEX_POINT ( 'NONE', #729 ) ;
#757 = EDGE_CURVE ( 'NONE', #333, #806, #780, .T. ) ;
#758 = ORIENTED_EDGE ( 'NONE', *, *, #747, .T. ) ;
#759 = ADVANCED_FACE ( 'NONE', ( #372 ), #586, .F. ) ;
#760 = CARTESIAN_POINT ( 'NONE',  ( 4.481280843667787117, 3.422852953893507522, 13.90240476094130173 ) ) ;
#761 = ORIENTED_EDGE ( 'NONE', *, *, #137, .T. ) ;
#762 = CARTESIAN_POINT ( 'NONE',  ( -3.064062037790016291, -4.360559164668685206, 4.626775075578875018 ) ) ;
#763 = DIRECTION ( 'NONE',  ( 0.3535533905932766174, 0.7071067811865389130, -0.6123724356958030191 ) ) ;
#764 = CARTESIAN_POINT ( 'NONE',  ( 6.475239034604902244, 2.137243241017233064, 13.36331522524129412 ) ) ;
#765 = VERTEX_POINT ( 'NONE', #167 ) ;
#766 = CARTESIAN_POINT ( 'NONE',  ( 2.905795964851593638, -14.70460469521734126, -5.032986247551695769 ) ) ;
#767 = ADVANCED_FACE ( 'NONE', ( #791 ), #151, .T. ) ;
#768 = CIRCLE ( 'NONE', #361, 0.8999999999999128697 ) ;
#769 = VERTEX_POINT ( 'NONE', #327 ) ;
#770 = CARTESIAN_POINT ( 'NONE',  ( -9.904416840132849842, 6.503020622011988827, -9.202675727362455760 ) ) ;
#771 = CYLINDRICAL_SURFACE ( 'NONE', #702, 0.8999999999998553601 ) ;
#772 = DIRECTION ( 'NONE',  ( 0.3535533905932766174, 0.7071067811865389130, -0.6123724356958030191 ) ) ;
#773 = EDGE_CURVE ( 'NONE', #68, #221, #348, .T. ) ;
#774 = CARTESIAN_POINT ( 'NONE',  ( 0.000000000000000000, 0.000000000000000000, 0.000000000000000000 ) ) ;
#775 = CARTESIAN_POINT ( 'NONE',  ( -9.122261493425906309, -10.87148790737402315, 0.000000000000000000 ) ) ;
#776 = CARTESIAN_POINT ( 'NONE',  ( -3.055170686110215250, 6.250786869056797812, -13.29171085413801023 ) ) ;
#777 = FACE_OUTER_BOUND ( 'NONE', #65, .T. ) ;
#778 = AXIS2_PLACEMENT_3D ( 'NONE', #267, #335, #918 ) ;
#779 = APPROVAL_STATUS ( 'not_yet_approved' ) ;
#780 = CIRCLE ( 'NONE', #900, 3.236730192915349136 ) ;
#781 = CIRCLE ( 'NONE', #175, 4.857478350479742524 ) ;
#782 = CARTESIAN_POINT ( 'NONE',  ( 0.000000000000000000, -7.000000000000000000, 0.000000000000000000 ) ) ;
#783 = APPROVAL ( #779, 'æœª' ) ;
#784 = DIRECTION ( 'NONE',  ( -0.3213938048432742889, 0.7660444431189744607, -0.5566703992264214751 ) ) ;
#785 = ORIENTED_EDGE ( 'NONE', *, *, #210, .T. ) ;
#786 = COORDINATED_UNIVERSAL_TIME_OFFSET ( 8, 0, .AHEAD. ) ;
#787 = ORIENTED_EDGE ( 'NONE', *, *, #284, .F. ) ;
#788 = CARTESIAN_POINT ( 'NONE',  ( -10.04057483412068663, 5.999999999999999112, -9.390785749894540402 ) ) ;
#789 = CARTESIAN_POINT ( 'NONE',  ( 0.000000000000000000, -7.000000000000000000, 0.000000000000000000 ) ) ;
#790 = ORIENTED_EDGE ( 'NONE', *, *, #653, .T. ) ;
#791 = FACE_OUTER_BOUND ( 'NONE', #398, .T. ) ;
#792 = ORIENTED_EDGE ( 'NONE', *, *, #274, .F. ) ;
#793 = DESIGN_CONTEXT ( 'detailed design', #296, 'design' ) ;
#794 = CARTESIAN_POINT ( 'NONE',  ( 4.674680640767415518, 9.854957110792890163, 10.30063317000082179 ) ) ;
#795 = ORIENTED_EDGE ( 'NONE', *, *, #614, .T. ) ;
#796 = CC_DESIGN_PERSON_AND_ORGANIZATION_ASSIGNMENT ( #212, #4, ( #418 ) ) ;
#797 = CIRCLE ( 'NONE', #717, 3.236730192915347359 ) ;
#798 = CIRCLE ( 'NONE', #463, 4.857478350479739859 ) ;
#799 = CARTESIAN_POINT ( 'NONE',  ( -6.468142819485055206, 2.139443170633148927, -13.36638339561138444 ) ) ;
#800 = AXIS2_PLACEMENT_3D ( 'NONE', #642, #297, #574 ) ;
#801 = APPROVAL_PERSON_ORGANIZATION ( #853, #783, #420 ) ;
#802 = CARTESIAN_POINT ( 'NONE',  ( 0.000000000000000000, -14.97297565616133674, 0.000000000000000000 ) ) ;
#803 = CARTESIAN_POINT ( 'NONE',  ( 10.04057483412068841, 5.999999999999999112, 9.390785749894536849 ) ) ;
#804 = CARTESIAN_POINT ( 'NONE',  ( 4.949747468305899289, -4.949747468305777609, -3.512815038853034366E-14 ) ) ;
#805 = EDGE_CURVE ( 'NONE', #44, #160, #330, .T. ) ;
#806 = VERTEX_POINT ( 'NONE', #892 ) ;
#807 = DIRECTION ( 'NONE',  ( 0.000000000000000000, -0.6546536707079867456, 0.7559289460184460685 ) ) ;
#808 = EDGE_LOOP ( 'NONE', ( #283, #237 ) ) ;
#809 = CARTESIAN_POINT ( 'NONE',  ( 5.586143571373718864, -4.313351365237934942, -4.076600168545496672E-14 ) ) ;
#810 = CARTESIAN_POINT ( 'NONE',  ( -5.293746310506436181, -11.17668092464974627, -8.488701520760988828 ) ) ;
#811 = CALENDAR_DATE ( 2026, 18, 2 ) ;
#812 = CARTESIAN_POINT ( 'NONE',  ( -9.897784993147260124, 3.634270298974485058, -10.67238309402218910 ) ) ;
#813 = CIRCLE ( 'NONE', #523, 0.9000000000000000222 ) ;
#814 = VERTEX_POINT ( 'NONE', #256 ) ;
#815 = CIRCLE ( 'NONE', #719, 3.236730192915347804 ) ;
#816 = EDGE_CURVE ( 'NONE', #473, #727, #781, .T. ) ;
#817 = CARTESIAN_POINT ( 'NONE',  ( -9.641814145298154060, -11.49066664678462324, 0.000000000000000000 ) ) ;
#818 = CARTESIAN_POINT ( 'NONE',  ( 0.000000000000000000, 0.000000000000000000, 0.000000000000000000 ) ) ;
#819 = CARTESIAN_POINT ( 'NONE',  ( -2.474873734152939875, -4.360559164668684318, -4.966943101287115248 ) ) ;
#820 = EDGE_LOOP ( 'NONE', ( #315, #530, #855, #735, #758 ) ) ;
#821 = DIRECTION ( 'NONE',  ( -0.3830222215594810686, -0.6427876096865436928, 0.6634139481689388385 ) ) ;
#822 = CARTESIAN_POINT ( 'NONE',  ( 0.000000000000000000, -14.97297565616133674, 0.000000000000000000 ) ) ;
#823 = ORIENTED_EDGE ( 'NONE', *, *, #890, .T. ) ;
#824 = CYLINDRICAL_SURFACE ( 'NONE', #673, 3.999999999999996447 ) ;
#825 = CARTESIAN_POINT ( 'NONE',  ( 9.429826364372834391, 2.876047040735492999, 11.30845283610034357 ) ) ;
#826 = ORIENTED_EDGE ( 'NONE', *, *, #409, .F. ) ;
#827 = CIRCLE ( 'NONE', #262, 0.8999999999999130917 ) ;
#828 = CIRCLE ( 'NONE', #689, 4.857478350479742524 ) ;
#829 = ORIENTED_EDGE ( 'NONE', *, *, #531, .T. ) ;
#830 = DIRECTION ( 'NONE',  ( 0.000000000000000000, 0.6546536707079867456, 0.7559289460184460685 ) ) ;
#831 = ORIENTED_EDGE ( 'NONE', *, *, #284, .T. ) ;
#832 = FACE_BOUND ( 'NONE', #741, .T. ) ;
#833 = ADVANCED_FACE ( 'NONE', ( #529 ), #220, .F. ) ;
#834 = CARTESIAN_POINT ( 'NONE',  ( 0.000000000000000000, 0.000000000000000000, 0.000000000000000000 ) ) ;
#835 = CARTESIAN_POINT ( 'NONE',  ( 8.550962848323505838, 2.230343683036036140, 12.12128042568445174 ) ) ;
#836 = ORIENTED_EDGE ( 'NONE', *, *, #76, .F. ) ;
#837 = CARTESIAN_POINT ( 'NONE',  ( 10.58749262101291144, -10.58749262101265565, -7.563620755883141429E-14 ) ) ;
#838 = DIRECTION ( 'NONE',  ( -0.3830222215594903945, -0.6427876096865436928, -0.6634139481689336204 ) ) ;
#839 = B_SPLINE_CURVE_WITH_KNOTS ( 'NONE', 3,
 ( #690, #468, #679, #52, #605, #268, #394, #609, #884, #472, #825, #749, #602, #42, #835, #247, #896, #197, #105, #179, #390, #764, #116, #260, #676, #540, #122, #760, #397, #683, #401, #336, #142, #272, #710, #146 ),
 .UNSPECIFIED., .F., .F.,
 ( 4, 2, 2, 2, 2, 2, 2, 2, 2, 2, 2, 2, 2, 2, 2, 2, 2, 4 ),
 ( 0.001106683526369835972, 0.001922500652888167738, 0.002738317779406499071, 0.003554134905924831271, 0.004369952032443162604, 0.005185769158961494804, 0.006001586285479827004, 0.006409494848738990502, 0.006817403411998154000, 0.007633220538516486200, 0.008449037665034816666, 0.009264854791553147131, 0.01008067191807148107, 0.01089648904458981153, 0.01171230617110814200, 0.01252812329762647420, 0.01334394042414480640, 0.01415975755066313686 ),
 .UNSPECIFIED. ) ;
#840 =( LENGTH_UNIT ( ) NAMED_UNIT ( * ) SI_UNIT ( .MILLI., .METRE. ) );
#841 = PRODUCT ( '\X2\7403\X0\', '\X2\7403\X0\', '', ( #694 ) ) ;
#842 = DIRECTION ( 'NONE',  ( -0.6427876096865435818, -0.7660444431189745718, -0.000000000000000000 ) ) ;
#843 = DIRECTION ( 'NONE',  ( 0.2499999999999982514, -0.8660254037844361541, -0.4330127018922254045 ) ) ;
#844 = LOCAL_TIME ( 11, 49, 0.000000000000000000, #438 ) ;
#845 = PERSON_AND_ORGANIZATION_ROLE ( 'design_owner' ) ;
#846 = ORIENTED_EDGE ( 'NONE', *, *, #371, .F. ) ;
#847 = EDGE_CURVE ( 'NONE', #44, #208, #156, .T. ) ;
#848 = DIRECTION ( 'NONE',  ( -0.000000000000000000, 1.000000000000000000, -0.000000000000000000 ) ) ;
#849 = FACE_OUTER_BOUND ( 'NONE', #134, .T. ) ;
#850 = CALENDAR_DATE ( 2026, 18, 2 ) ;
#851 = CARTESIAN_POINT ( 'NONE',  ( -3.112371603845171641, 6.000000000000000000, -13.39078574989452264 ) ) ;
#852 = CARTESIAN_POINT ( 'NONE',  ( -5.401217195470175980, -13.99381480538303180, -6.614583349932195513E-16 ) ) ;
#853 = PERSON_AND_ORGANIZATION ( #454, #450 ) ;
#854 = EDGE_CURVE ( 'NONE', #47, #129, #23, .T. ) ;
#855 = ORIENTED_EDGE ( 'NONE', *, *, #357, .T. ) ;
#856 = CARTESIAN_POINT ( 'NONE',  ( -9.982780281634360264, 6.253389551088027076, -9.290682648586438219 ) ) ;
#857 = CARTESIAN_POINT ( 'NONE',  ( 4.561130746712878548, -10.87148790737402138, -7.900110193271447478 ) ) ;
#858 = CONICAL_SURFACE ( 'NONE', #569, 5.000000000000001776, 0.1745329251994333364 ) ;
#859 = CALENDAR_DATE ( 2026, 18, 2 ) ;
#860 = AXIS2_PLACEMENT_3D ( 'NONE', #369, #83, #875 ) ;
#861 = CC_DESIGN_APPROVAL ( #695, ( #418 ) ) ;
#862 = CARTESIAN_POINT ( 'NONE',  ( -3.934357551785763185, 9.421421036535473803, -10.99244349060025350 ) ) ;
#863 = CARTESIAN_POINT ( 'NONE',  ( 9.313680752010000674, 7.710052151773263418, 8.881883289727673159 ) ) ;
#864 = MANIFOLD_SOLID_BREP ( 'ÇÐ³ý-Ðý×ª2', #20 ) ;
#865 = LINE ( 'NONE', #696, #21 ) ;
#866 = EDGE_LOOP ( 'NONE', ( #633, #24, #176, #886 ) ) ;
#867 = EDGE_CURVE ( 'NONE', #806, #333, #557, .T. ) ;
#868 = CARTESIAN_POINT ( 'NONE',  ( 0.3672294351372588639, -5.910752279499193129, 0.6360600396925425448 ) ) ;
#869 = CARTESIAN_POINT ( 'NONE',  ( -10.13346380926967782, 5.500018922635271146, -9.598784269208728404 ) ) ;
#870 = CARTESIAN_POINT ( 'NONE',  ( 4.561130746712988682, -10.87148790737402315, 7.900110193271383530 ) ) ;
#871 = AXIS2_PLACEMENT_3D ( 'NONE', #909, #551, #667 ) ;
#872 = CARTESIAN_POINT ( 'NONE',  ( 2.700608597735043137, -13.99381480538303180, -4.677591302634535708 ) ) ;
#873 = EDGE_CURVE ( 'NONE', #756, #510, #737, .T. ) ;
#874 = ORIENTED_EDGE ( 'NONE', *, *, #703, .T. ) ;
#875 = DIRECTION ( 'NONE',  ( 9.637352644317136973E-16, 0.6546536707079867456, 0.7559289460184460685 ) ) ;
#876 = VERTEX_POINT ( 'NONE', #819 ) ;
#877 = DATE_AND_TIME ( #585, #50 ) ;
#878 = CARTESIAN_POINT ( 'NONE',  ( -8.933764674440562104, 2.435560743303681885, -11.80381651828328948 ) ) ;
#879 = LINE ( 'NONE', #177, #91 ) ;
#880 = CARTESIAN_POINT ( 'NONE',  ( 4.820907072648999758, -11.49066664678462324, -8.350055988396391626 ) ) ;
#881 = CARTESIAN_POINT ( 'NONE',  ( -3.213938048432716688, -3.830222215594875745, 0.000000000000000000 ) ) ;
#882 = FACE_BOUND ( 'NONE', #808, .T. ) ;
#883 = CYLINDRICAL_SURFACE ( 'NONE', #277, 0.8999999999998552491 ) ;
#884 = CARTESIAN_POINT ( 'NONE',  ( 9.802563618945853818, 3.429502199282716823, 10.82693422980209341 ) ) ;
#885 = CIRCLE ( 'NONE', #60, 0.8999999999999129807 ) ;
#886 = ORIENTED_EDGE ( 'NONE', *, *, #502, .F. ) ;
#887 = DIRECTION ( 'NONE',  ( 0.3213938048432665173, -0.7660444431189744607, -0.5566703992264259160 ) ) ;
#888 = DIRECTION ( 'NONE',  ( -0.000000000000000000, 1.000000000000000000, -0.000000000000000000 ) ) ;
#889 = ORIENTED_EDGE ( 'NONE', *, *, #421, .F. ) ;
#890 = EDGE_CURVE ( 'NONE', #746, #658, #839, .T. ) ;
#891 = DIRECTION ( 'NONE',  ( -0.4999999999999982792, -0.000000000000000000, -0.8660254037844397068 ) ) ;
#892 = CARTESIAN_POINT ( 'NONE',  ( 2.846708613295485968, -1.749692151690550146, 4.930643952571671207 ) ) ;
#893 = ORIENTED_EDGE ( 'NONE', *, *, #314, .F. ) ;
#894 = EDGE_CURVE ( 'NONE', #658, #123, #64, .T. ) ;
#895 = ORIENTED_EDGE ( 'NONE', *, *, #668, .F. ) ;
#896 = CARTESIAN_POINT ( 'NONE',  ( 8.236248194355336949, 2.113023760888467439, 12.35790760459681614 ) ) ;
#897 = VERTEX_POINT ( 'NONE', #912 ) ;
#898 = FACE_OUTER_BOUND ( 'NONE', #435, .T. ) ;
#899 = VECTOR ( 'NONE', #185, 1000.000000000000000 ) ;
#900 = AXIS2_PLACEMENT_3D ( 'NONE', #30, #376, #22 ) ;
#901 = VECTOR ( 'NONE', #525, 1000.000000000000114 ) ;
#902 = FACE_OUTER_BOUND ( 'NONE', #257, .T. ) ;
#903 = CARTESIAN_POINT ( 'NONE',  ( -5.293746310506434405, -10.58749262101265565, 9.169037572177487050 ) ) ;
#904 = VERTEX_POINT ( 'NONE', #916 ) ;
#905 = CARTESIAN_POINT ( 'NONE',  ( 0.000000000000000000, 0.000000000000000000, 0.000000000000000000 ) ) ;
#906 = FACE_OUTER_BOUND ( 'NONE', #568, .T. ) ;
#907 = DIRECTION ( 'NONE',  ( 0.3535533905932766174, 0.7071067811865389130, -0.6123724356958030191 ) ) ;
#908 = ORIENTED_EDGE ( 'NONE', *, *, #747, .F. ) ;
#909 = CARTESIAN_POINT ( 'NONE',  ( 0.000000000000000000, -19.00000000000000000, 0.000000000000000000 ) ) ;
#910 = FACE_BOUND ( 'NONE', #153, .T. ) ;
#911 = EDGE_CURVE ( 'NONE', #190, #814, #828, .T. ) ;
#912 = CARTESIAN_POINT ( 'NONE',  ( 5.538935771942980146, -4.360559164668685206, 0.3401680257082053127 ) ) ;
#913 = CARTESIAN_POINT ( 'NONE',  ( -2.983415874749333341, 6.998146447938276005, -12.93065248506971976 ) ) ;
#914 = AXIS2_PLACEMENT_3D ( 'NONE', #857, #144, #288 ) ;
#915 = CARTESIAN_POINT ( 'NONE',  ( 0.000000000000000000, 0.000000000000000000, 0.000000000000000000 ) ) ;
#916 = CARTESIAN_POINT ( 'NONE',  ( -0.7344588702745099562, -5.910752279499195794, 0.000000000000000000 ) ) ;
#917 = DIRECTION ( 'NONE',  ( 0.000000000000000000, 0.000000000000000000, 1.000000000000000000 ) ) ;
#918 = DIRECTION ( 'NONE',  ( -0.3830222215594810686, -0.6427876096865436928, 0.6634139481689388385 ) ) ;
#919 = ADVANCED_FACE ( 'NONE', ( #350 ), #138, .F. ) ;
#920 = DIRECTION ( 'NONE',  ( 0.6546536707079680939, -0.6546536707079867456, -0.3779644730092260874 ) ) ;
#921 = ORIENTED_EDGE ( 'NONE', *, *, #816, .F. ) ;
#922 = DIRECTION ( 'NONE',  ( -0.4999999999999982792, -0.000000000000000000, -0.8660254037844397068 ) ) ;
#923 = CARTESIAN_POINT ( 'NONE',  ( 7.543569718775271049, 9.426799273015587843, 8.905419146228847893 ) ) ;
#924 = DATE_AND_TIME ( #850, #321 ) ;
#925 = DIRECTION ( 'NONE',  ( 0.3535533905932766174, 0.7071067811865389130, -0.6123724356958030191 ) ) ;
ENDSEC;
END-ISO-10303-21;
